<?xml version="1.0" encoding="utf-8"?>
<!-- Generator: Adobe Illustrator 19.0.0, SVG Export Plug-In . SVG Version: 6.00 Build 0)  -->
<svg version="1.1" id="Layer_1" xmlns="http://www.w3.org/2000/svg" xmlns:xlink="http://www.w3.org/1999/xlink" x="0px" y="0px"
	 viewBox="-1389 993 100 100" style="enable-background:new -1389 993 100 100;" xml:space="preserve">
<style type="text/css">
	.st0{fill:#3A3A3A;}
</style>
<g>
	<path class="st0" d="M-1369.8,1063.4l-0.4-0.2c-0.2-0.1-0.4-0.1-0.5,0l-0.4,0.3c-0.5,0.3-0.8,0.9-0.8,1.5v1.6
		c0,0.3,0.2,0.5,0.5,0.5h2c0.3,0,0.5-0.2,0.5-0.5v-1.6C-1369,1064.3-1369.3,1063.7-1369.8,1063.4z M-1370,1066.1h-1v-1.1
		c0-0.3,0.1-0.5,0.4-0.7l0.1-0.1l0.1,0.1c0.2,0.2,0.4,0.4,0.4,0.7V1066.1z"/>
	<path class="st0" d="M-1303.5,1070.1h-0.5v-16h0.5c0.3,0,0.5-0.2,0.5-0.5v-3c0-0.3-0.2-0.5-0.5-0.5h-0.5v-1.5
		c0-0.3-0.2-0.5-0.5-0.5h-2.8c-0.2-1.7-1.4-3.3-3.3-4.2l-4.7-2.3v-0.7c0-0.3-0.2-0.5-0.5-0.5s-0.5,0.3-0.5,0.5v0.7l-4.6,2.2
		c-1.9,0.9-3.1,2.5-3.3,4.2h-1.7v-3h0.5c0.3,0,0.5-0.2,0.5-0.5v-3c0-0.3-0.2-0.5-0.5-0.5h-0.5v-6h0.5c0.3,0,0.5-0.2,0.5-0.5v-3
		c0-0.3-0.2-0.5-0.5-0.5h-1.5v-4h0.5c0.3,0,0.5-0.2,0.5-0.5v-2c0-0.3-0.2-0.5-0.5-0.5h-0.5v-2h0.5c0.3,0,0.5-0.2,0.5-0.5v-2
		c0-0.3-0.2-0.5-0.5-0.5h-0.5v-1c0-0.9-0.6-1.7-1.5-1.9v-0.6c0-0.3-0.2-0.5-0.5-0.5s-0.5,0.2-0.5,0.5v0.6c-0.9,0.2-1.5,1-1.5,1.9v1
		h-0.5c-0.3,0-0.5,0.2-0.5,0.5v2c0,0.3,0.2,0.5,0.5,0.5h0.5v2h-0.5c-0.3,0-0.5,0.2-0.5,0.5v2c0,0.3,0.2,0.5,0.5,0.5h0.5v4h-1.5
		c-0.3,0-0.5,0.2-0.5,0.5v3c0,0.3,0.2,0.5,0.5,0.5h0.5v6h-0.5h-0.1c-0.5-0.9-1.2-1.8-2.2-2.4l-3.8-2.3v-0.9c0-0.3-0.2-0.5-0.5-0.5
		s-0.5,0.2-0.5,0.5v0.9l-3.8,2.5c-0.9,0.6-1.7,1.4-2.1,2.3h-0.1h-0.5v-6h0.5c0.3,0,0.5-0.2,0.5-0.5v-3c0-0.3-0.2-0.5-0.5-0.5h-1.5
		v-4h0.5c0.3,0,0.5-0.2,0.5-0.5v-2c0-0.3-0.2-0.5-0.5-0.5h-0.5v-2h0.5c0.3,0,0.5-0.2,0.5-0.5v-2c0-0.3-0.2-0.5-0.5-0.5h-0.5v-1
		c0-0.9-0.6-1.7-1.5-1.9v-0.6c0-0.3-0.2-0.5-0.5-0.5s-0.5,0.2-0.5,0.5v0.6c-0.9,0.2-1.5,1-1.5,1.9v1h-0.5c-0.3,0-0.5,0.2-0.5,0.5v2
		c0,0.3,0.2,0.5,0.5,0.5h0.5v2h-0.5c-0.3,0-0.5,0.2-0.5,0.5v2c0,0.3,0.2,0.5,0.5,0.5h0.5v4h-1.5c-0.3,0-0.5,0.2-0.5,0.5v3
		c0,0.3,0.2,0.5,0.5,0.5h0.5v6h-0.5c-0.3,0-0.5,0.2-0.5,0.5v3c0,0.3,0.2,0.5,0.5,0.5h0.5v3h-2.3c-0.2-1.7-1.4-3.3-3.3-4.2l-4.7-2.3
		v-0.7c0-0.3-0.2-0.5-0.5-0.5s-0.5,0.3-0.5,0.5v0.7l-4.7,2.3c-1.9,0.9-3.1,2.5-3.3,4.2h-2.2c-0.3,0-0.5,0.2-0.5,0.5v1.5h-0.5
		c-0.3,0-0.5,0.2-0.5,0.5v3c0,0.3,0.2,0.5,0.5,0.5h0.5v16h-0.5c-0.3,0-0.5,0.2-0.5,0.5s0.2,0.5,0.5,0.5h1h22h4.8h0.2h14.8h0.2h5h22
		h1c0.3,0,0.5-0.2,0.5-0.5S-1303.2,1070.1-1303.5,1070.1z M-1304,1053.1h-0.5h-21.5v-2h21.5h0.5V1053.1z M-1324,1049.1h2v1h-2
		V1049.1z M-1310,1050.1h-2v-1h2V1050.1z M-1313,1050.1h-2v-1h2V1050.1z M-1316,1050.1h-2v-1h2V1050.1z M-1319,1050.1h-2v-1h2
		V1050.1z M-1305,1049.1v1h-1v-1H-1305z M-1307,1050.1h-2v-1h2V1050.1z M-1320.5,1044.8l4.7-2.3l4.7,2.3c1.6,0.8,2.5,2,2.7,3.3
		h-14.9C-1323.1,1046.7-1322.1,1045.5-1320.5,1044.8z M-1325,1049.1v1h-1v-1H-1325z M-1330,1018.1c0-0.5,0.4-1,1-1l0,0l0,0
		c0.5,0,1,0.5,1,1v1h-2V1018.1z M-1331,1020.1h0.5h3h0.5v1h-0.5h-3h-0.5V1020.1z M-1330,1022.1h2v2h-2V1022.1z M-1331,1025.1h0.5h3
		h0.5v1h-0.5h-3h-0.5V1025.1z M-1330,1027.1h2v4h-2V1027.1z M-1332,1032.1h1.5h3h1.5v2h-0.5h-5h-0.5V1032.1z M-1331,1035.1h4v6h-4
		V1035.1z M-1332,1042.1h0.5h5h0.5v2h-0.5h-5h-0.5v-0.5V1042.1z M-1345.8,1045.1h0.3h1.5v1h-2v-1H-1345.8z M-1332,1049.1h-14v-2h14
		V1049.1z M-1337,1046.1v-1h2v1H-1337z M-1338,1046.1h-2v-1h2V1046.1z M-1341,1046.1h-2v-1h2V1046.1z M-1346,1062.9
		c0-3.2,1.6-6.2,4.4-8l2.6-1.7l2.6,1.7c2.8,1.7,4.4,4.7,4.4,8v7.2h-14V1062.9z M-1335.9,1054l-2.9-1.8c-0.2-0.1-0.4-0.1-0.5,0
		l-2.9,1.9c-1.7,1.1-3,2.6-3.8,4.4v-8.4h14v8.3C-1332.8,1056.6-1334.1,1055.1-1335.9,1054z M-1332,1046.1h-2v-1h1.5h0.5V1046.1z
		 M-1342.7,1039.6l3.7-2.3l3.7,2.3c1.4,0.9,2.3,2.3,2.3,4v0.5h-12v-0.5C-1345,1042-1344.2,1040.5-1342.7,1039.6z M-1350,1018.1
		c0-0.5,0.4-1,1-1l0,0l0,0c0.5,0,1,0.5,1,1v1h-2V1018.1z M-1351,1020.1h0.5h3h0.5v1h-0.5h-3h-0.5V1020.1z M-1350,1022.1h2v2h-2
		V1022.1z M-1351,1025.1h0.5h3h0.5v1h-0.5h-3h-0.5V1025.1z M-1350,1027.1h2v4h-2V1027.1z M-1352,1032.1h1.5h3h1.5v2h-0.5h-5h-0.5
		V1032.1z M-1351,1035.1h4v6h-4V1035.1z M-1352,1042.1h0.5h5h0.5v1.5v0.5h-0.5h-5h-0.5V1042.1z M-1352,1049.1v1h-1v-1H-1352z
		 M-1354,1050.1h-2v-1h2V1050.1z M-1371,1049.1h2v1h-2V1049.1z M-1368,1049.1h2v1h-2V1049.1z M-1365,1049.1h2v1h-2V1049.1z
		 M-1362,1049.1h2v1h-2V1049.1z M-1359,1049.1h2v1h-2V1049.1z M-1367.5,1044.8l4.7-2.3l4.7,2.3c1.6,0.8,2.6,2,2.8,3.3h-15
		C-1370.1,1046.8-1369.1,1045.5-1367.5,1044.8z M-1373,1049.1h1v1h-1V1049.1z M-1374,1051.1h0.5h21.5v2h-21.5h-0.5V1051.1z
		 M-1373,1054.1h21v16h-5v-6.6c0-2.5-1.2-4.7-3.3-6l-1.9-1.2c-0.2-0.1-0.4-0.1-0.5,0l-1.9,1.2c-2.1,1.3-3.3,3.6-3.3,6v6.6h-5
		L-1373,1054.1L-1373,1054.1z M-1358,1070.1h-9v-6.5c0-2.1,1.1-4,2.8-5.2l1.7-1.1l1.6,1c1.8,1.1,2.9,3.1,2.9,5.2V1070.1z
		 M-1351,1053.6v-3v-2v-3.5h4v1.5v3v13.3v7.2h-4V1053.6z M-1331,1062.9v-13.3v-3v-1.5h4v3.5v2v3v16.5h-4V1062.9z M-1311,1070.1h-9
		v-6.5c0-2.1,1.1-4,2.8-5.2l1.7-1.1l1.6,1c1.8,1.1,2.9,3.1,2.9,5.2V1070.1z M-1310,1070.1v-6.6c0-2.5-1.2-4.7-3.3-6l-1.9-1.2
		c-0.2-0.1-0.4-0.1-0.5,0l-1.9,1.2c-2.1,1.3-3.3,3.6-3.3,6v6.6h-5v-16h21v16H-1310z"/>
	<path class="st0" d="M-1355.5,1067.1h2c0.3,0,0.5-0.2,0.5-0.5v-1.6c0-0.6-0.3-1.2-0.8-1.5l-0.4-0.2c-0.2-0.1-0.4-0.1-0.5,0
		l-0.4,0.3c-0.5,0.3-0.8,0.9-0.8,1.5v1.6C-1356,1066.9-1355.8,1067.1-1355.5,1067.1z M-1355,1065c0-0.3,0.1-0.5,0.4-0.7l0.1-0.1
		l0.1,0.1c0.2,0.2,0.4,0.4,0.4,0.7v1.1h-1V1065z M-1367.8,1058.4c0.8,0,1.5-0.7,1.5-1.5s-0.7-1.5-1.5-1.5s-1.5,0.7-1.5,1.5
		S-1368.6,1058.4-1367.8,1058.4z M-1367.8,1056.4c0.3,0,0.5,0.2,0.5,0.5s-0.2,0.5-0.5,0.5s-0.5-0.2-0.5-0.5
		S-1368.1,1056.4-1367.8,1056.4z M-1357.8,1058.4c0.8,0,1.5-0.7,1.5-1.5s-0.7-1.5-1.5-1.5s-1.5,0.7-1.5,1.5
		S-1358.6,1058.4-1357.8,1058.4z M-1357.8,1056.4c0.3,0,0.5,0.2,0.5,0.5s-0.2,0.5-0.5,0.5s-0.5-0.2-0.5-0.5
		S-1358.1,1056.4-1357.8,1056.4z M-1322.8,1063.4l-0.4-0.2c-0.2-0.1-0.4-0.1-0.5,0l-0.4,0.3c-0.5,0.3-0.8,0.9-0.8,1.5v1.6
		c0,0.3,0.2,0.5,0.5,0.5h2c0.3,0,0.5-0.2,0.5-0.5v-1.6C-1322,1064.3-1322.3,1063.7-1322.8,1063.4z M-1323,1066.1h-1v-1.1
		c0-0.3,0.1-0.5,0.4-0.7l0.1-0.1l0.1,0.1c0.2,0.2,0.4,0.4,0.4,0.7V1066.1z M-1306.8,1063.4l-0.4-0.2c-0.2-0.1-0.4-0.1-0.5,0
		l-0.4,0.3c-0.5,0.3-0.8,0.9-0.8,1.5v1.6c0,0.3,0.2,0.5,0.5,0.5h2c0.3,0,0.5-0.2,0.5-0.5v-1.6
		C-1306,1064.3-1306.3,1063.7-1306.8,1063.4z M-1307,1066.1h-1v-1.1c0-0.3,0.1-0.5,0.4-0.7l0.1-0.1l0.1,0.1c0.2,0.2,0.4,0.4,0.4,0.7
		V1066.1z M-1320.8,1055.4c-0.8,0-1.5,0.7-1.5,1.5s0.7,1.5,1.5,1.5s1.5-0.7,1.5-1.5S-1320,1055.4-1320.8,1055.4z M-1320.8,1057.4
		c-0.3,0-0.5-0.2-0.5-0.5s0.2-0.5,0.5-0.5s0.5,0.2,0.5,0.5S-1320.5,1057.4-1320.8,1057.4z M-1310.8,1055.4c-0.8,0-1.5,0.7-1.5,1.5
		s0.7,1.5,1.5,1.5s1.5-0.7,1.5-1.5S-1310,1055.4-1310.8,1055.4z M-1310.8,1057.4c-0.3,0-0.5-0.2-0.5-0.5s0.2-0.5,0.5-0.5
		s0.5,0.2,0.5,0.5S-1310.5,1057.4-1310.8,1057.4z"/>
</g>
</svg>
