<?xml version="1.0" encoding="utf-8"?>
<!-- Generator: Adobe Illustrator 19.0.0, SVG Export Plug-In . SVG Version: 6.00 Build 0)  -->
<svg version="1.1" id="Layer_1" xmlns="http://www.w3.org/2000/svg" xmlns:xlink="http://www.w3.org/1999/xlink" x="0px" y="0px"
	 viewBox="-1389 993 100 100" style="enable-background:new -1389 993 100 100;" xml:space="preserve">
<style type="text/css">
	.st0{fill:#3A3A3A;}
</style>
<path class="st0" d="M-1314.9,1038c1.1,0,2-0.9,2-2s-0.9-2-2-2s-2,0.9-2,2S-1316,1038-1314.9,1038z M-1314.9,1035c0.6,0,1,0.4,1,1
	s-0.4,1-1,1s-1-0.4-1-1C-1315.9,1035.4-1315.5,1035-1314.9,1035z M-1362.9,1038c1.1,0,2-0.9,2-2s-0.9-2-2-2s-2,0.9-2,2
	S-1364,1038-1362.9,1038z M-1362.9,1035c0.6,0,1,0.4,1,1s-0.4,1-1,1s-1-0.4-1-1C-1363.9,1035.4-1363.5,1035-1362.9,1035z
	 M-1361.5,1049h-3c-0.3,0-0.5,0.2-0.5,0.5v2c0,0.3,0.2,0.5,0.5,0.5h3c0.3,0,0.5-0.2,0.5-0.5v-2
	C-1361,1049.3-1361.2,1049-1361.5,1049z M-1362,1051h-2v-1h2V1051z M-1360.5,1040h-1h-3h-1c-0.3,0-0.5,0.2-0.5,0.5s0.2,0.5,0.5,0.5
	h0.5v5.5c0,0.3,0.2,0.5,0.5,0.5h3c0.3,0,0.5-0.2,0.5-0.5v-5.5h0.5c0.3,0,0.5-0.2,0.5-0.5S-1360.2,1040-1360.5,1040z M-1362,1046h-2
	v-5h2V1046z M-1313.5,1049h-3c-0.3,0-0.5,0.2-0.5,0.5v2c0,0.3,0.2,0.5,0.5,0.5h3c0.3,0,0.5-0.2,0.5-0.5v-2
	C-1313,1049.3-1313.2,1049-1313.5,1049z M-1314,1051h-2v-1h2V1051z M-1312.5,1040h-1h-3h-1c-0.3,0-0.5,0.2-0.5,0.5s0.2,0.5,0.5,0.5
	h0.5v5.5c0,0.3,0.2,0.5,0.5,0.5h3c0.3,0,0.5-0.2,0.5-0.5v-5.5h0.5c0.3,0,0.5-0.2,0.5-0.5S-1312.2,1040-1312.5,1040z M-1314,1046h-2
	v-5h2V1046z"/>
<path class="st0" d="M-1308.6,1070.9h-1.4v-30.5c0-0.3-0.2-0.5-0.5-0.5h-0.5v-3.2l0.1-0.1c0.6-0.7,0.8-1.7,0.7-2.6s-0.6-1.8-1.3-2.3
	l-4.4-3.5v-0.3c0.3-0.2,0.6-0.5,0.6-0.9c0-0.6-0.5-1.1-1.1-1.1s-1.1,0.5-1.1,1.1c0,0.4,0.2,0.8,0.6,0.9v0.3l-4.4,3.5
	c-0.7,0.6-1.2,1.4-1.3,2.3c-0.1,0.9,0.1,1.8,0.7,2.5v2.5h-0.5c-0.3,0-0.5,0.2-0.5,0.5v0.5h-6.2l-1.8-2.7v-3.6l0,0l2-3
	c0.1-0.2,0.1-0.4,0-0.5c-0.1-0.2-0.3-0.3-0.4-0.3h-1.6v-1.2l0,0l0.1-0.1c0.9-1.2,1.2-2.7,0.9-4.1c-0.3-1.4-1.2-2.6-2.5-3.3l-3.4-1.8
	v-2c0-0.3-0.2-0.5-0.5-0.5h-0.5v-1c0-1.1-0.9-2-2-2s-2,0.9-2,2v1h-0.5c-0.3,0-0.5,0.2-0.5,0.5v2c0,0,0,0,0,0.1l-3.5,1.7
	c-1.4,0.8-2.3,2.2-2.6,3.6c-0.2,1.3,0.1,2.5,0.9,3.6v1.5h-1.4c-0.2,0-0.4,0.1-0.4,0.3c-0.1,0.2-0.1,0.4,0,0.5l1.8,2.7v3.8l-1.7,2.6
	h-6.3v-0.5c0-0.3-0.2-0.5-0.5-0.5h-0.5v-2.2l0.1-0.1c0.6-0.7,0.8-1.7,0.7-2.6c-0.1-0.9-0.6-1.8-1.3-2.3l-4.4-3.5v-0.3
	c0.3-0.2,0.6-0.5,0.6-0.9c0-0.6-0.5-1.1-1.1-1.1s-1.1,0.5-1.1,1.1c0,0.4,0.2,0.8,0.6,0.9v0.3l-4.4,3.6c-0.7,0.6-1.2,1.4-1.3,2.3
	c-0.1,0.9,0.1,1.8,0.7,2.5v3.5h-0.5c-0.3,0-0.5,0.2-0.5,0.5v30.5h-1.5c-0.3,0-0.5,0.2-0.5,0.5s0.2,0.5,0.5,0.5h2h8h0.5h1h3.1h2.3
	h4.1h2.3h4.1h6h4.1h2.4h4.1h2.4h2h2h0.1h8.4h1.9c0.3,0,0.5-0.2,0.5-0.5C-1308.1,1071.2-1308.3,1070.9-1308.6,1070.9z
	 M-1321.7,1034.1c0.1-0.7,0.4-1.3,0.9-1.7l4.3-3.4l4.3,3.4c0.5,0.4,0.9,1,0.9,1.7c0.1,0.7-0.1,1.3-0.5,1.8h-9.5
	C-1321.6,1035.4-1321.7,1034.8-1321.7,1034.1z M-1321,1036.9h9v3h-4h-3v-0.5c0-0.3-0.2-0.5-0.5-0.5h-1.5V1036.9z M-1323,1057.9h-2.4
	v-4h2.4V1057.9z M-1325.4,1058.9h2.4v3h-2.4V1058.9z M-1323,1052.9h-2.4v-3h2.4V1052.9z M-1322.5,1048.9h-0.5h-2.4h-0.5h-3.1h-0.5
	h-2.4h-0.6h-3h-0.5h-6h-0.5h-3.1h-0.5h-2.3h-0.5h-3.1h-0.5h-2.3h-0.5h-3.6h-1v-2h42v2h-0.9H-1322.5z M-1331.9,1053.9h2.4v4h-2.4
	V1053.9z M-1329.5,1052.9h-2.4v-3h2.4V1052.9z M-1331.9,1058.9h2.4v3h-2.4V1058.9z M-1342,1053.9h6v4h-6V1053.9z M-1336,1052.9h-6
	v-3h6V1052.9z M-1342,1058.9h6v3h-6V1058.9z M-1348.5,1053.9h2.3v4h-2.3V1053.9z M-1346.1,1052.9h-2.3v-3h2.3V1052.9z
	 M-1348.5,1058.9h2.3v3h-2.3V1058.9z M-1352.6,1052.9h-2.3v-3h2.3V1052.9z M-1354.9,1053.9h2.3v4h-2.3V1053.9z M-1354.9,1058.9h2.3
	v3h-2.3V1058.9z M-1317.5,1045.9h-43h-0.7l2-2h0.7h3h0.1h12.9h7h13l0,0h3h0.9l2,2H-1317.5z M-1358,1039.9h2v3h-2V1039.9z
	 M-1346,1033.9h2.1l-0.1,3h-2V1033.9z M-1340.9,1037C-1340.9,1037-1341,1036.9-1340.9,1037h-2.1l0.1-3h8.1l-0.1,3h-2.1h-0.1l-1.7-1
	c-0.2-0.1-0.3-0.1-0.5,0L-1340.9,1037z M-1335,1039.9v-1.5c0-0.2-0.1-0.3-0.3-0.4l-0.1-0.1h0.7l1.3,2h-1.4H-1335z M-1333.8,1033.9
	h1.8v3h-1.9L-1333.8,1033.9z M-1343.1,1032.9l-1.3-2h11.1l-1.3,2H-1343.1z M-1342.6,1037.9L-1342.6,1037.9c-0.3,0.2-0.4,0.4-0.4,0.5
	v1.5h-0.2h-1.3l1.3-2H-1342.6z M-1342,1038.7l3-1.7l3,1.7v4.2h-6V1038.7z M-1322,1039.9h2v3h-2V1039.9z M-1323,1042.9h-12v-2h0.3
	h5.3h6.4L-1323,1042.9L-1323,1042.9z M-1332.1,1039.9l-1.3-2h1.7l1.4,2H-1332.1z M-1331.7,1032.9h-1.7l1.3-2h0.6h1.2L-1331.7,1032.9
	z M-1340,1015.9c0-0.5,0.5-1,1-1s1,0.4,1,1v1h-2V1015.9z M-1341,1017.9h4v1h-4V1017.9z M-1346.9,1025c0.2-1.2,1-2.3,2.1-2.9l4.1-2.2
	h3.5l4.1,2.2c1,0.6,1.8,1.5,2,2.6s0,2.2-0.7,3.2h-5.3v-1.1c0-0.9-0.4-1.6-1.2-2.1l-0.6-0.4c-0.2-0.1-0.4-0.1-0.5,0l-0.6,0.4
	c-0.7,0.5-1.1,1.2-1.1,2.1v1.1h-5.2C-1346.8,1027-1347.1,1026-1346.9,1025z M-1338,1027.9h-2v-1.1c0-0.5,0.3-1,0.7-1.3l0.3-0.2
	l0.3,0.2c0.4,0.3,0.7,0.7,0.7,1.3V1027.9z M-1346,1028.9h14v1h-14V1028.9z M-1346.5,1030.9h0.8l1.3,2h-1.8l-1.3-2H-1346.5z
	 M-1346.2,1037.9h1.8l-1.3,2h-1.8L-1346.2,1037.9z M-1354.9,1040.9h6.5h5.2h0.2v2h-11.9L-1354.9,1040.9L-1354.9,1040.9z
	 M-1366.7,1034.1c0.1-0.7,0.4-1.3,0.9-1.7l4.3-3.4l4.3,3.4c0.5,0.4,0.9,1,0.9,1.7c0.1,0.7-0.1,1.3-0.5,1.8h-9.5
	C-1366.6,1035.4-1366.7,1034.8-1366.7,1034.1z M-1366,1036.9h9v2h-1.5c-0.3,0-0.5,0.2-0.5,0.5v0.5h-3h-4V1036.9z M-1359.5,1070.9
	h-7.5v-30h0.5h4.5h3v2h-0.4c-0.1,0-0.3,0.1-0.4,0.1l-3,3c-0.1,0.1-0.2,0.4-0.1,0.5s0.3,0.3,0.5,0.3h1.4v2.5c0,0.3,0.2,0.5,0.5,0.5
	h1.5v21L-1359.5,1070.9L-1359.5,1070.9z M-1358,1070.9v-21h2.1v3.5v5v4v8.5H-1358z M-1354.9,1070.9v-8h2.3v8H-1354.9z
	 M-1351.6,1070.9v-8.5l0,0l0,0v-4l0,0l0,0v-5l0,0l0,0v-3.5h2.1v21H-1351.6z M-1348.5,1070.9v-8h2.3v8H-1348.5z M-1345.1,1070.9
	v-12.5l0,0l0,0v-8.5h2.1v21H-1345.1z M-1342,1070.9v-8h6v8H-1342z M-1335,1070.9v-21h2.1v21H-1335z M-1331.9,1070.9v-8h2.4v8
	H-1331.9z M-1328.5,1070.9v-21h2.1v21H-1328.5z M-1325.4,1070.9v-8h2.4v8H-1325.4z M-1321,1070.9h-1v-8.5v-4v-5v-3.5h2.1v21H-1321z
	 M-1318.9,1070.9v-21h1.4c0.3,0,0.5-0.2,0.5-0.5v-2.5h1.6c0.2,0,0.4-0.1,0.5-0.3s0-0.4-0.1-0.5l-3-3c-0.1-0.1-0.2-0.1-0.4-0.1h-0.6
	v-2h3h4.5h0.5v30L-1318.9,1070.9L-1318.9,1070.9z"/>
</svg>
