<?xml version="1.0" encoding="utf-8"?>
<!-- Generator: Adobe Illustrator 19.0.0, SVG Export Plug-In . SVG Version: 6.00 Build 0)  -->
<svg version="1.1" id="Layer_1" xmlns="http://www.w3.org/2000/svg" xmlns:xlink="http://www.w3.org/1999/xlink" x="0px" y="0px"
	 viewBox="-1389 993 100 100" style="enable-background:new -1389 993 100 100;" xml:space="preserve">
<style type="text/css">
	.st0{fill:#3A3A3A;}
</style>
<g id="g5" transform="translate(18 18)">
	<path id="path145" class="st0" d="M-1361.1,993c-0.3,0-0.5,0.2-0.5,0.5v1.6c-1.5,0.2-2.7,1.4-2.9,2.9h-2.6c-0.3,0-0.5,0.2-0.5,0.5
		v1.5h-5.5c-0.3,0-0.5,0.2-0.5,0.5v8.5h-2.5c-0.3,0-0.5,0.2-0.5,0.5v2.5h-1.5c-0.3,0-0.5,0.2-0.5,0.5v3.5h-2.5
		c-0.2,0-0.3,0.1-0.4,0.2s-0.1,0.3,0,0.5l2.9,5.9v10.4h-0.5c-0.3,0-0.5,0.2-0.5,0.5s0.2,0.5,0.5,0.5h0.5v6h-1.4
		c-0.2,0-0.4,0.1-0.4,0.3c-0.1,0.2-0.1,0.4,0,0.5l1.9,2.8v9.4h-0.5c-0.3,0-0.5,0.2-0.5,0.5s0.2,0.5,0.5,0.5h0.5v2h-4
		c-0.3,0-0.5,0.2-0.5,0.5s0.2,0.5,0.5,0.5h6.5h10h20h10h4.5c0.3,0,0.5-0.2,0.5-0.5s-0.2-0.5-0.5-0.5h-4v-2h0.5
		c0.3,0,0.5-0.2,0.5-0.5s-0.2-0.5-0.5-0.5h-0.5v-9.3l1.9-2.9c0.1-0.2,0.1-0.4,0-0.5c-0.1-0.2-0.3-0.3-0.4-0.3h-1.5v-6h0.5
		c0.3,0,0.5-0.2,0.5-0.5s-0.2-0.5-0.5-0.5h-0.5v-10.4l2.9-5.9c0.1-0.2,0.1-0.3,0-0.5c-0.1-0.1-0.3-0.2-0.4-0.2h-2.5v-3.5
		c0-0.3-0.2-0.5-0.5-0.5h-1.5v-2.5c0-0.3-0.2-0.5-0.5-0.5h-2.5v-8.5c0-0.3-0.2-0.5-0.5-0.5h-5.5v-1.5c0-0.3-0.2-0.5-0.5-0.5h-2.6
		c0-0.1,0-0.1,0-0.2c-0.3-1.4-1.5-2.5-2.9-2.7v-1.6c0-0.3-0.2-0.5-0.5-0.5H-1361.1z M-1360.6,994h7v1h-7V994z M-1361.1,996h8
		c1.2,0,2.2,0.9,2.5,2h-12.9C-1363.3,996.9-1362.3,996-1361.1,996z M-1366.6,999h2h15h2v1h-19V999z M-1372.6,1001h31v8h-31V1001z
		 M-1363.1,1003c-0.3,0-0.5,0.2-0.5,0.5v3c0,0.3,0.2,0.5,0.5,0.5h1.5v0.5c0,0.3,0.2,0.5,0.5,0.5h8c0.3,0,0.5-0.2,0.5-0.5v-0.5h1.5
		c0.3,0,0.5-0.2,0.5-0.5v-3c0-0.3-0.2-0.5-0.5-0.5H-1363.1z M-1367.1,1003c-1.4,0-2.5,1.1-2.5,2.5s1.1,2.5,2.5,2.5s2.5-1.1,2.5-2.5
		S-1365.7,1003-1367.1,1003z M-1347.1,1003c-1.4,0-2.5,1.1-2.5,2.5s1.1,2.5,2.5,2.5s2.5-1.1,2.5-2.5S-1345.7,1003-1347.1,1003z
		 M-1362.6,1004h11v2h-1.5c-0.3,0-0.5,0.2-0.5,0.5v0.5h-7v-0.5c0-0.3-0.2-0.5-0.5-0.5h-1.5V1004z M-1367.1,1004
		c0.8,0,1.5,0.7,1.5,1.5s-0.7,1.5-1.5,1.5s-1.5-0.7-1.5-1.5S-1367.9,1004-1367.1,1004z M-1347.1,1004c0.8,0,1.5,0.7,1.5,1.5
		s-0.7,1.5-1.5,1.5s-1.5-0.7-1.5-1.5S-1347.9,1004-1347.1,1004z M-1375.6,1010h37v2h-37V1010z M-1377.6,1013h41v3h-41V1013z
		 M-1380.3,1017h46.4l-0.5,1h-45.4L-1380.3,1017z M-1379.3,1019h0.7v1.4L-1379.3,1019z M-1377.6,1019h2v3h-2V1019z M-1374.6,1019h2
		v3h-2V1019z M-1371.6,1019h2v3h-2V1019z M-1368.6,1019h2v3h-2V1019z M-1365.6,1019h2v3h-2V1019z M-1362.6,1019h2v3h-2V1019z
		 M-1359.6,1019h2v3h-2V1019z M-1356.6,1019h2v3h-2V1019z M-1353.6,1019h2v3h-2V1019z M-1350.6,1019h2v3h-2V1019z M-1347.6,1019h2v3
		h-2V1019z M-1344.6,1019h2v3h-2V1019z M-1341.6,1019h2v3h-2V1019z M-1338.6,1019h2v3h-2V1019z M-1335.6,1019h0.7l-0.7,1.4V1019z
		 M-1377.6,1023h11v2.5v7.5h-1v-3.5c0-0.3-0.2-0.5-0.5-0.5h-8c-0.3,0-0.5,0.2-0.5,0.5v3.5h-1V1023z M-1365.6,1023h17v2h-7.5
		c-0.3,0-0.5,0.2-0.5,0.5v3.5h-1v-3.5c0-0.3-0.2-0.5-0.5-0.5h-7.5V1023z M-1347.6,1023h11v10h-1v-3.5c0-0.3-0.2-0.5-0.5-0.5h-8
		c-0.3,0-0.5,0.2-0.5,0.5v3.5h-1v-7.5V1023z M-1372.1,1024c-1.1,0-2,0.9-2,2c0,1.1,0.9,2,2,2s2-0.9,2-2
		C-1370.1,1024.9-1371,1024-1372.1,1024z M-1342.1,1024c-1.1,0-2,0.9-2,2c0,1.1,0.9,2,2,2s2-0.9,2-2
		C-1340.1,1024.9-1341,1024-1342.1,1024z M-1372.1,1025c0.6,0,1,0.4,1,1c0,0.6-0.4,1-1,1s-1-0.4-1-1
		C-1373.1,1025.4-1372.7,1025-1372.1,1025z M-1342.1,1025c0.6,0,1,0.4,1,1c0,0.6-0.4,1-1,1s-1-0.4-1-1
		C-1343.1,1025.4-1342.7,1025-1342.1,1025z M-1365.6,1026h7v0.2c-3.3,0.7-5.8,3.4-6,6.8h-1V1026z M-1355.6,1026h7v7h-1
		c-0.2-3.4-2.7-6.2-6-6.8V1026z M-1358.6,1027.2v1c-2.1,0.6-3.7,2.5-4,4.8h-1C-1363.4,1030.2-1361.3,1027.8-1358.6,1027.2z
		 M-1355.6,1027.2c2.7,0.6,4.8,3,5,5.8h-1c-0.2-2.3-1.8-4.2-4-4.8V1027.2z M-1358.6,1029.3v0.2c0,0.3,0.2,0.5,0.5,0.5h2
		c0.3,0,0.5-0.2,0.5-0.5v-0.2c1.6,0.6,2.8,2,3,3.7h-0.5c-0.3,0-0.5,0.2-0.5,0.5s0.2,0.5,0.5,0.5h0.5v6h-0.5c-0.3,0-0.5,0.2-0.5,0.5
		s0.2,0.5,0.5,0.5h0.5v15h-9v-15h0.5c0.3,0,0.5-0.2,0.5-0.5s-0.2-0.5-0.5-0.5h-0.5v-6h0.5c0.3,0,0.5-0.2,0.5-0.5s-0.2-0.5-0.5-0.5
		h-0.5C-1361.4,1031.3-1360.2,1029.8-1358.6,1029.3z M-1375.6,1030h1.5v1h-1.5V1030z M-1373.1,1030h2v1h-2V1030z M-1370.1,1030h1.5
		v1h-1.5V1030z M-1345.6,1030h1.5v1h-1.5V1030z M-1343.1,1030h2v1h-2V1030z M-1340.1,1030h1.5v1h-1.5V1030z M-1375.6,1032h7v1h-7
		V1032z M-1345.6,1032h7v1h-7V1032z M-1377.6,1034h1v1h-1V1034z M-1375.6,1034h7v1h-7V1034z M-1367.6,1034h1v1h-1V1034z
		 M-1365.6,1034h3v6h-1.5h-1.5V1034z M-1351.6,1034h3v6h-0.8h-2.3v-6H-1351.6z M-1347.6,1034h1v1h-1V1034z M-1345.6,1034h7v1h-7
		V1034z M-1337.6,1034h1v1h-1V1034z M-1377.6,1036h1v4h-1V1036z M-1375.6,1036h1v2.5c0,0.3,0.2,0.5,0.5,0.5h4c0.3,0,0.5-0.2,0.5-0.5
		v-2.5h1v4h-7V1036z M-1373.6,1036h3v2h-3V1036z M-1367.6,1036h1v4h-1V1036z M-1347.6,1036h1v4h-1V1036z M-1345.6,1036h1v2.5
		c0,0.3,0.2,0.5,0.5,0.5h4c0.3,0,0.5-0.2,0.5-0.5v-2.5h1v4h-7V1036z M-1343.6,1036h3v2h-3V1036z M-1337.6,1036h1v4h-1V1036z
		 M-1379.1,1041h14.1l-1.3,2h-11.4L-1379.1,1041z M-1363.8,1041h1.2v15h-3v-12.3L-1363.8,1041z M-1351.6,1041h1.3l1.7,2.6v12.4h-3
		V1041z M-1349.1,1041h14.1l-1.3,2h-11.4L-1349.1,1041z M-1377.6,1044h1v9h-1V1044z M-1375.6,1044h7v9h-7V1044z M-1367.6,1044h1v9
		h-1V1044z M-1347.6,1044h1v9h-1V1044z M-1345.6,1044h7v9h-7V1044z M-1337.6,1044h1v9h-1V1044z M-1377.6,1054h1v2h-1V1054z
		 M-1375.6,1054h1v2h-1V1054z M-1373.6,1054h3v2h-3V1054z M-1369.6,1054h1v2h-1V1054z M-1367.6,1054h1v2h-1V1054z M-1347.6,1054h1v2
		h-1V1054z M-1345.6,1054h1v2h-1V1054z M-1343.6,1054h3v2h-3V1054z M-1339.6,1054h1v2h-1V1054z M-1337.6,1054h1v2h-1V1054z"/>
</g>
</svg>
