<?xml version="1.0" encoding="utf-8"?>
<!-- Generator: Adobe Illustrator 19.0.0, SVG Export Plug-In . SVG Version: 6.00 Build 0)  -->
<svg version="1.1" id="Layer_1" xmlns="http://www.w3.org/2000/svg" xmlns:xlink="http://www.w3.org/1999/xlink" x="0px" y="0px"
	 viewBox="-1389 993 100 100" style="enable-background:new -1389 993 100 100;" xml:space="preserve">
<style type="text/css">
	.st0{fill:#3A3A3A;}
</style>
<g>
	<path class="st0" d="M-1363.6,1053.5h-3c-0.3,0-0.5,0.2-0.5,0.5v4c0,0.3,0.2,0.5,0.5,0.5h3c0.3,0,0.5-0.2,0.5-0.5v-4
		C-1363.1,1053.7-1363.3,1053.5-1363.6,1053.5z M-1364.1,1054.5v1h-2v-1H-1364.1z M-1366.1,1057.5v-1h2v1H-1366.1z"/>
	<path class="st0" d="M-1307.6,1070.5h-1.5v-9h0.5c0.3,0,0.5-0.2,0.5-0.5s-0.2-0.5-0.5-0.5h-0.5v-8h0.5c0.3,0,0.5-0.2,0.5-0.5
		s-0.2-0.5-0.5-0.5h-0.5v-3h0.5c0.3,0,0.5-0.2,0.5-0.5s-0.2-0.5-0.5-0.5h-0.5v-1.9v-0.6v-1c0-0.3-0.2-0.5-0.5-0.5s-0.5,0.2-0.5,0.5
		v0.5h-1v-3h0.5c0.3,0,0.5-0.2,0.5-0.5s-0.2-0.5-0.5-0.5h-0.5c0-0.9-0.6-1.7-1.5-1.9l0,0v-1.6c0-0.3-0.2-0.5-0.5-0.5
		s-0.5,0.2-0.5,0.5v1.6l0,0c-0.9,0.2-1.5,1-1.5,1.9h-0.5c-0.3,0-0.5,0.2-0.5,0.5s0.2,0.5,0.5,0.5h0.5v3h-1v-0.5
		c0-0.3-0.2-0.5-0.5-0.5s-0.5,0.2-0.5,0.5v1v0.6v1.9h-0.5c-0.3,0-0.5,0.2-0.5,0.5s0.2,0.5,0.5,0.5h0.5v1h-8v-1h0.5
		c0.3,0,0.5-0.2,0.5-0.5s-0.2-0.5-0.5-0.5h-0.5v-5h0.5c0.3,0,0.5-0.2,0.5-0.5s-0.2-0.5-0.5-0.5h-0.5c-0.2-1-1-1.8-2-2v-1.5
		c0-0.3-0.2-0.5-0.5-0.5s-0.5,0.2-0.5,0.5v1.5h-0.5c-1.2,0-2.2-0.9-2.4-2h1.4c0.3,0,0.5-0.2,0.5-0.5v-2c0-0.3-0.2-0.5-0.5-0.5h-1.5
		v-2h0.5c0.3,0,0.5-0.2,0.5-0.5s-0.2-0.5-0.5-0.5h-0.5c-0.4-3.1-2.5-5.6-5.4-6.6v-3.4h0.5c0.3,0,0.5-0.2,0.5-0.5s-0.2-0.5-0.5-0.5
		h-0.5c-0.2-1-1-1.8-2-2v-3.5c0-0.3-0.2-0.5-0.5-0.5s-0.5,0.2-0.5,0.5v3.5c-1,0.2-1.8,1-2,2h-0.5c-0.3,0-0.5,0.2-0.5,0.5
		s0.2,0.5,0.5,0.5h0.5v3.4c-2.9,1-5,3.5-5.4,6.6h-0.6c-0.3,0-0.5,0.2-0.5,0.5s0.2,0.5,0.5,0.5h0.5v2h-1.5c-0.3,0-0.5,0.2-0.5,0.5v2
		c0,0.3,0.2,0.5,0.5,0.5h1.4c-0.2,1.1-1.2,2-2.4,2h-0.5v-1.5c0-0.3-0.2-0.5-0.5-0.5s-0.5,0.2-0.5,0.5v1.5c-1,0.2-1.8,1-2,2h-0.5
		c-0.3,0-0.5,0.2-0.5,0.5s0.2,0.5,0.5,0.5h0.5v5h-0.5c-0.3,0-0.5,0.2-0.5,0.5s0.2,0.5,0.5,0.5h0.5v1h-8v-1h0.5
		c0.3,0,0.5-0.2,0.5-0.5s-0.2-0.5-0.5-0.5h-0.5v-1.9v-0.6v-1c0-0.3-0.2-0.5-0.5-0.5s-0.5,0.2-0.5,0.5v0.5h-1v-3h0.5
		c0.3,0,0.5-0.2,0.5-0.5s-0.2-0.5-0.5-0.5h-0.5c0-0.9-0.6-1.7-1.5-1.9l0,0v-1.6c0-0.3-0.2-0.5-0.5-0.5s-0.5,0.2-0.5,0.5v1.6l0,0
		c-0.9,0.2-1.5,1-1.5,1.9h-0.5c-0.3,0-0.5,0.2-0.5,0.5s0.2,0.5,0.5,0.5h0.5v3h-1v-0.5c0-0.3-0.2-0.5-0.5-0.5s-0.5,0.2-0.5,0.5v1v0.6
		v1.9h-0.5c-0.3,0-0.5,0.2-0.5,0.5s0.2,0.5,0.5,0.5h0.5v3h-0.5c-0.3,0-0.5,0.2-0.5,0.5s0.2,0.5,0.5,0.5h0.5v8h-0.5
		c-0.3,0-0.5,0.2-0.5,0.5s0.2,0.5,0.5,0.5h0.5v9h-1.5c-0.3,0-0.5,0.2-0.5,0.5s0.2,0.5,0.5,0.5h2h7h9h3h3h3h9h3h3h3h9h7h2
		c0.3,0,0.5-0.2,0.5-0.5S-1307.3,1070.5-1307.6,1070.5z M-1310.1,1060.5h-6v-6.5v-1.5h6V1060.5z M-1313.1,1039.5c0.6,0,1,0.4,1,1h-2
		C-1314.1,1039.9-1313.6,1039.5-1313.1,1039.5z M-1314.1,1041.5h2v3h-2V1041.5z M-1316.1,1045.6L-1316.1,1045.6l1.5-0.1l0,0h3l0,0
		h1.4v0.1v1.9h-6L-1316.1,1045.6L-1316.1,1045.6z M-1310.1,1048.5v3h-6v-1.5v-1.5H-1310.1z M-1317.1,1050.5v1h-0.5
		c-0.3,0-0.5,0.2-0.5,0.5s0.2,0.5,0.5,0.5h0.5v1h-8v-1h0.5c0.3,0,0.5-0.2,0.5-0.5s-0.2-0.5-0.5-0.5h-0.5v-1H-1317.1z
		 M-1343.1,1067.5v-9c0-2.2,1.8-4,4-4s4,1.8,4,4v9v3h-8V1067.5z M-1339.1,1053.5c-1.6,0-3.1,0.8-4,2v-3h1.5h5h1.5v3
		C-1336,1054.3-1337.4,1053.5-1339.1,1053.5z M-1336.6,1051.5h-5h-1.5v-2h8v2H-1336.6z M-1346.1,1044.5h2v2h-2V1044.5z
		 M-1341.6,1044.5h5h1.5v2h-8v-2H-1341.6z M-1344.1,1037.5h1v4h-1V1037.5z M-1342.1,1037.5h6v4h-0.5h-0.5v-1.1c0-1.1-0.9-2-2-2
		s-2,0.9-2,2v1.1h-0.5h-0.5V1037.5z M-1334.1,1041.5h-1v-4h1V1041.5z M-1338.1,1041.5h-2v-1.1c0-0.6,0.4-1,1-1s1,0.4,1,1V1041.5z
		 M-1341.1,1042.5h4v1h-4V1042.5z M-1332.1,1046.5h-2v-2h2V1046.5z M-1346.6,1047.5h3h9h3h1.5v0.5c0,0,0,0,0,0.1v0.4h-1.5h-3h-9h-3
		h-1.5v-0.5l0,0v-0.5H-1346.6z M-1352.1,1050v-1.5h3v0.5c0,0.3,0.2,0.5,0.5,0.5h1.5v2h-2.5h-2.5V1050z M-1347.1,1052.5v2.3
		c-0.3-0.2-0.6-0.3-1-0.3s-0.7,0.1-1,0.3v-2.3H-1347.1z M-1347.1,1065.5h-2v-2c0-0.6,0.4-1,1-1s1,0.4,1,1V1065.5z M-1348.1,1061.5
		c-0.4,0-0.7,0.1-1,0.3v-2.3h2v2.3C-1347.4,1061.6-1347.7,1061.5-1348.1,1061.5z M-1347.1,1058.5h-2v-2c0-0.6,0.4-1,1-1s1,0.4,1,1
		V1058.5z M-1349.1,1066.5h2v4h-2V1066.5z M-1346.1,1049.5h2v2h-2V1049.5z M-1334.1,1049.5h2v2h-2V1049.5z M-1329.1,1065.5h-2v-2
		c0-0.6,0.4-1,1-1s1,0.4,1,1V1065.5z M-1330.1,1061.5c-0.4,0-0.7,0.1-1,0.3v-2.3h2v2.3C-1329.4,1061.6-1329.7,1061.5-1330.1,1061.5z
		 M-1329.1,1058.5h-2v-2c0-0.6,0.4-1,1-1s1,0.4,1,1V1058.5z M-1331.1,1066.5h2v4h-2V1066.5z M-1329.1,1054.8c-0.3-0.2-0.6-0.3-1-0.3
		s-0.7,0.1-1,0.3v-2.3h2V1054.8z M-1331.1,1051.5v-2h1.5c0.3,0,0.5-0.2,0.5-0.5v-0.5h3v1.5v1.5h-2.5H-1331.1z M-1326.1,1047.5h-1
		c0,0,0,0,0-0.1v-2.4c0-0.3-0.2-0.5-0.5-0.5s-0.5,0.2-0.5,0.5v2.4c0,0,0,0,0,0.1h-1v-0.5c0,0,0,0,0-0.1v-4.4h3V1047.5z
		 M-1326.2,1041.5h-2.8c0.2-0.6,0.8-1,1.4-1C-1327,1040.5-1326.4,1040.9-1326.2,1041.5z M-1329.5,1040.4c-0.3,0.3-0.5,0.7-0.6,1.1
		h-0.5c-0.3,0-0.5,0.2-0.5,0.5s0.2,0.5,0.5,0.5h0.5v4h-1v-2.5c0-0.3-0.2-0.5-0.5-0.5h-3h-1.5v-1h3.5c0.3,0,0.5-0.2,0.5-0.5
		s-0.2-0.5-0.5-0.5h-0.5v-4h1.1C-1331.8,1038.9-1330.8,1040-1329.5,1040.4z M-1332.1,1034.5h-1v-2h1V1034.5z M-1344.1,1032.5h2v2h-2
		V1032.5z M-1341.1,1032.5h4v2h-4V1032.5z M-1336.1,1032.5h2v2h-2V1032.5z M-1339.1,1019.5c0.7,0,1.2,0.4,1.4,1h-2.8
		C-1340.3,1019.9-1339.8,1019.5-1339.1,1019.5z M-1340.6,1021.5h3v3.1c-0.3-0.1-0.7-0.1-1-0.1v-0.1v-1.4c0-0.3-0.2-0.5-0.5-0.5
		s-0.5,0.2-0.5,0.5v1.4v0.1c-0.3,0-0.7,0.1-1,0.1V1021.5z M-1339.1,1025.5c3.5,0,6.4,2.6,6.9,6h-13.8
		C-1345.5,1028.1-1342.6,1025.5-1339.1,1025.5z M-1346.1,1032.5h1v2h-1V1032.5z M-1348.1,1035.5h18v1h-18V1035.5z M-1346.1,1037.5
		h1.1v4h-0.5c-0.3,0-0.5,0.2-0.5,0.5s0.2,0.5,0.5,0.5h3.5v1h-1.5h-3c-0.3,0-0.5,0.2-0.5,0.5v2.5h-1v-4h0.5c0.3,0,0.5-0.2,0.5-0.5
		s-0.2-0.5-0.5-0.5h-0.5c-0.1-0.4-0.3-0.8-0.6-1.1C-1347.4,1040-1346.3,1038.9-1346.1,1037.5z M-1350.6,1040.5c0.7,0,1.2,0.4,1.4,1
		h-2.8C-1351.8,1040.9-1351.2,1040.5-1350.6,1040.5z M-1349.1,1042.5v4.5v0.5h-1c0,0,0,0,0-0.1v-2.4c0-0.3-0.2-0.5-0.5-0.5
		s-0.5,0.2-0.5,0.5v2.4c0,0,0,0,0,0.1h-1v-5H-1349.1z M-1353.1,1050.5v1h-0.5c-0.3,0-0.5,0.2-0.5,0.5s0.2,0.5,0.5,0.5h0.5v1h-8v-1
		h0.5c0.3,0,0.5-0.2,0.5-0.5s-0.2-0.5-0.5-0.5h-0.5v-1H-1353.1z M-1365.1,1039.5c0.6,0,1,0.4,1,1h-2
		C-1366.1,1039.9-1365.7,1039.5-1365.1,1039.5z M-1366.1,1041.5h2v3h-2V1041.5z M-1368.1,1045.6L-1368.1,1045.6l1.4-0.1l0,0h3l0,0
		h1.5v0.1v1.9h-6L-1368.1,1045.6L-1368.1,1045.6z M-1368.1,1048.5h6v1.5v1.5h-6V1048.5z M-1368.1,1052.5h6v1.5v6.5h-6V1052.5z
		 M-1368.1,1061.5h6v9h-6V1061.5z M-1361.1,1061.5h0.5c0.3,0,0.5-0.2,0.5-0.5s-0.2-0.5-0.5-0.5h-0.5v-6h8v16h-8V1061.5z
		 M-1352.1,1070.5V1054v-1.5h2v4v2.5v4.5v2.5v4.5H-1352.1z M-1346.1,1070.5v-4.5v-2.5v-4.5v-2.5v-4h2v6v9v3H-1346.1z
		 M-1334.1,1070.5v-3v-9v-6h2v4v2.5v4.5v2.5v4.5H-1334.1z M-1328.1,1066v-2.5v-4.5v-2.5v-4h2v1.5v16.5h-2V1066z M-1325.1,1054.5h8v6
		h-0.5c-0.3,0-0.5,0.2-0.5,0.5s0.2,0.5,0.5,0.5h0.5v9h-8V1054.5z M-1316.1,1070.5v-9h6v9H-1316.1z"/>
	<path class="st0" d="M-1355.6,1062.5h-3c-0.3,0-0.5,0.2-0.5,0.5v4c0,0.3,0.2,0.5,0.5,0.5h3c0.3,0,0.5-0.2,0.5-0.5v-4
		C-1355.1,1062.7-1355.3,1062.5-1355.6,1062.5z M-1356.1,1063.5v1h-2v-1H-1356.1z M-1356.1,1066.5h-2v-1h2V1066.5z M-1355.6,1055.5
		h-3c-0.3,0-0.5,0.2-0.5,0.5v4c0,0.3,0.2,0.5,0.5,0.5h3c0.3,0,0.5-0.2,0.5-0.5v-4C-1355.1,1055.7-1355.3,1055.5-1355.6,1055.5z
		 M-1356.1,1056.5v1h-2v-1H-1356.1z M-1356.1,1059.5h-2v-1h2V1059.5z M-1363.6,1062.5h-3c-0.3,0-0.5,0.2-0.5,0.5v4
		c0,0.3,0.2,0.5,0.5,0.5h3c0.3,0,0.5-0.2,0.5-0.5v-4C-1363.1,1062.7-1363.3,1062.5-1363.6,1062.5z M-1364.1,1066.5h-2v-3h2V1066.5z"
		/>
	<circle class="st0" cx="-1339.1" cy="1033.5" r="0.5"/>
	<circle class="st0" cx="-1365.1" cy="1050" r="0.5"/>
	<path class="st0" d="M-1314.6,1058.5h3c0.3,0,0.5-0.2,0.5-0.5v-4c0-0.3-0.2-0.5-0.5-0.5h-3c-0.3,0-0.5,0.2-0.5,0.5v4
		C-1315.1,1058.3-1314.9,1058.5-1314.6,1058.5z M-1314.1,1057.5v-1h2v1H-1314.1z M-1312.1,1054.5v1h-2v-1H-1312.1z M-1319.6,1062.5
		h-3c-0.3,0-0.5,0.2-0.5,0.5v4c0,0.3,0.2,0.5,0.5,0.5h3c0.3,0,0.5-0.2,0.5-0.5v-4C-1319.1,1062.7-1319.3,1062.5-1319.6,1062.5z
		 M-1322.1,1063.5h2v1h-2V1063.5z M-1322.1,1066.5v-1h2v1H-1322.1z M-1319.6,1055.5h-3c-0.3,0-0.5,0.2-0.5,0.5v4
		c0,0.3,0.2,0.5,0.5,0.5h3c0.3,0,0.5-0.2,0.5-0.5v-4C-1319.1,1055.7-1319.3,1055.5-1319.6,1055.5z M-1322.1,1056.5h2v1h-2V1056.5z
		 M-1322.1,1059.5v-1h2v1H-1322.1z M-1311.6,1062.5h-3c-0.3,0-0.5,0.2-0.5,0.5v4c0,0.3,0.2,0.5,0.5,0.5h3c0.3,0,0.5-0.2,0.5-0.5v-4
		C-1311.1,1062.7-1311.3,1062.5-1311.6,1062.5z M-1312.1,1066.5h-2v-3h2V1066.5z"/>
	<circle class="st0" cx="-1313.1" cy="1050" r="0.5"/>
</g>
</svg>
