<?xml version="1.0" encoding="utf-8"?>
<!-- Generator: Adobe Illustrator 19.0.0, SVG Export Plug-In . SVG Version: 6.00 Build 0)  -->
<svg version="1.1" id="Layer_1" xmlns="http://www.w3.org/2000/svg" xmlns:xlink="http://www.w3.org/1999/xlink" x="0px" y="0px"
	 viewBox="-1389 993 100 100" style="enable-background:new -1389 993 100 100;" xml:space="preserve">
<style type="text/css">
	.st0{fill:#3A3A3A;}
</style>
<g>
	<path class="st0" d="M-1308,1066.5h-2.5v-21h1.5c0.2,0,0.4-0.1,0.5-0.3l1-3c0.1-0.2,0-0.3-0.1-0.5c-0.1-0.1-0.2-0.2-0.4-0.2h-2.5
		v-4h0.5c0.3,0,0.5-0.2,0.5-0.5v-3c0-0.3-0.2-0.5-0.5-0.5h-14.5v-3.5c0-0.3-0.2-0.5-0.5-0.5h-0.5v-5v-0.5v-1.5
		c0-0.9-0.6-1.7-1.5-1.9v-1.6c0-0.3-0.2-0.5-0.5-0.5s-0.5,0.2-0.5,0.5v1.6c-0.9,0.2-1.5,1-1.5,1.9v1.5v0.5v2h-19v-2v-0.5v-1.5
		c0-0.9-0.6-1.7-1.5-1.9v-1.6c0-0.3-0.2-0.5-0.5-0.5s-0.5,0.2-0.5,0.5v1.6c-0.9,0.2-1.5,1-1.5,1.9v1.5v0.5v5h-0.5
		c-0.3,0-0.5,0.2-0.5,0.5v3.5h-14.5c-0.3,0-0.5,0.2-0.5,0.5v3c0,0.3,0.2,0.5,0.5,0.5h0.5v4h-2.5c-0.2,0-0.3,0.1-0.4,0.2
		s-0.1,0.3-0.1,0.5l1,3c0.1,0.2,0.3,0.3,0.5,0.3h1.5v21h-2.5c-0.3,0-0.5,0.2-0.5,0.5s0.2,0.5,0.5,0.5h3h5.5h4h4.5h5h18h5h4.5h4h5.5
		h3c0.3,0,0.5-0.2,0.5-0.5S-1307.7,1066.5-1308,1066.5z M-1309.4,1044.5h-15.1v-2h15.8L-1309.4,1044.5z M-1347.5,1030.5h17v6h-17
		V1030.5z M-1325.5,1030.5v6h-4v-6h0.5h3H-1325.5z M-1342.5,1037.5v4h-2v-4H-1342.5z M-1341.5,1037.5h2v4h-2V1037.5z
		 M-1338.5,1037.5h2v4h-2V1037.5z M-1335.5,1037.5h2v4h-2V1037.5z M-1332.5,1037.5h2v4h-2V1037.5z M-1329.5,1041.5v-4h4v4H-1329.5z
		 M-1345.5,1037.5v4h-2v-4H-1345.5z M-1348.5,1041.5h-4v-4h4V1041.5z M-1348.5,1042.5v2h-4v-2H-1348.5z M-1329.5,1042.5h4v2h-4
		V1042.5z M-1311.5,1041.5h-13v-4h13V1041.5z M-1310.5,1034.5v2h-0.5h-13.5v-2H-1310.5z M-1328.5,1029.5v-5h2v5H-1328.5z
		 M-1327.5,1021.5c0.6,0,1,0.4,1,1v1h-2v-1C-1328.5,1021.9-1328.1,1021.5-1327.5,1021.5z M-1329.5,1027.5v2h-0.2h-0.3h-18h-0.5v-2
		H-1329.5z M-1350.5,1021.5c0.6,0,1,0.4,1,1v1h-2v-1C-1351.5,1021.9-1351.1,1021.5-1350.5,1021.5z M-1351.5,1024.5h2v5h-2V1024.5z
		 M-1352,1030.5h3h0.5v6h-4v-2.5l0,0l0,0v-3.5H-1352z M-1367.5,1034.5h14v2h-13.5h-0.5V1034.5z M-1366.5,1037.5h13v4h-13V1037.5z
		 M-1369.3,1042.5h15.8v2h-15.1L-1369.3,1042.5z M-1366.5,1045.5h13v21h-1.5v-11.4l0,0l0,0l0,0c0-2.7-1.5-5.1-4-6.3
		c-0.3-0.2-0.7-0.2-1.1,0c-2.4,1.2-3.9,3.6-4,6.3l0,0l0,0l0,0v11.4h-2.5L-1366.5,1045.5L-1366.5,1045.5z M-1362,1066.5h-1v-11h7v11
		h-1v-6.5c0-2.6-2.2-3.4-2.3-3.5c-0.1,0-0.2,0-0.3,0s-2.4,0.9-2.4,3.5C-1362,1060-1362,1066.5-1362,1066.5z M-1363,1054.5
		c0.2-2.1,1.4-4,3.4-5c0.1,0,0.1,0,0.2,0c1.9,1,3.2,2.8,3.4,5H-1363z M-1361,1066.5v-6.5c0-1.5,1.1-2.2,1.5-2.5
		c0.5,0.3,1.5,1,1.5,2.5v6.5H-1361z M-1352.5,1066.5v-21h4v21H-1352.5z M-1345.5,1066.5v-10.9c0-3,1.5-5.8,4.1-7.4l2.4-1.6l2.4,1.5
		c2.6,1.6,4.1,4.4,4.1,7.5v11L-1345.5,1066.5L-1345.5,1066.5z M-1336.1,1047.3l-2.7-1.7c-0.2-0.1-0.4-0.1-0.5,0l-2.7,1.7
		c-2.8,1.8-4.5,4.9-4.5,8.3v10.9h-1v-24h17v24h-1v-11C-1331.5,1052.2-1333.2,1049.1-1336.1,1047.3z M-1329.5,1066.5v-21h4v21
		H-1329.5z M-1322,1055.5h7v11h-1v-6.5c0-2.6-2.2-3.4-2.3-3.5c-0.1,0-0.2,0-0.3,0s-2.4,0.9-2.4,3.5v6.5h-1L-1322,1055.5
		L-1322,1055.5z M-1322,1054.5c0.2-2.1,1.4-4,3.4-5c0.1,0,0.1,0,0.2,0c1.9,1,3.2,2.8,3.4,5H-1322z M-1320,1066.5v-6.5
		c0-1.5,1.1-2.2,1.5-2.5c0.5,0.3,1.5,1,1.5,2.5v6.5H-1320z M-1314,1066.5v-11.4l0,0l0,0l0,0c0-2.7-1.5-5.1-4-6.4
		c-0.3-0.2-0.7-0.2-1.1,0c-2.4,1.2-4,3.7-4,6.4v11.4h-1.5v-21h13v21H-1314z"/>
</g>
</svg>
