<svg version="1.1" id="Layer_1___4niELsuu" xmlns="http://www.w3.org/2000/svg" xmlns:xlink="http://www.w3.org/1999/xlink" x="0px" y="0px" width="192px" height="192px" viewBox="0 0 192 192" enable-background="new 0 0 192 192" xml:space="preserve">
<g>
	<g>
		<path fill="#FF4262" d="M191.727,192H0.273v-85.583c0-41.276,20.309-50.56,37.794-50.899c-1.371-7.237-0.482-14.117,2.659-20.534
			c6.926-14.15,24.525-25.445,53.802-34.527L96,0l1.47,0.457c29.28,9.082,46.874,20.377,53.799,34.527
			c3.141,6.417,4.031,13.297,2.656,20.534c17.489,0.339,37.802,9.623,37.802,50.899V192z M10.194,182.086h171.614v-75.669
			c0-30.272-10.805-43.071-34.008-40.722l-7.956,0.81l2.812-7.486c2.729-7.258,2.633-13.693-0.294-19.673
			C136.891,28.159,121.289,18.42,96,10.393c-25.293,8.023-40.888,17.761-46.367,28.953c-2.928,5.98-3.023,12.416-0.297,19.673
			l2.816,7.486l-7.961-0.81c-23.163-2.34-33.998,10.449-33.998,40.722V182.086z"></path>
	</g>
	<g>
		<path fill="#FF4262" d="M130.125,191.953H61.879v-66.62c0-18.822,15.302-34.125,34.115-34.125
			c18.819,0,34.131,15.302,34.131,34.125V191.953z M71.695,182.133h48.602v-56.8c0-13.406-10.898-24.302-24.303-24.302
			c-13.395,0-24.298,10.896-24.298,24.302V182.133z"></path>
	</g>
</g>
</svg>