<?xml version="1.0" encoding="utf-8"?>
<!-- Generator: Adobe Illustrator 19.0.0, SVG Export Plug-In . SVG Version: 6.00 Build 0)  -->
<svg version="1.1" id="Layer_1" xmlns="http://www.w3.org/2000/svg" xmlns:xlink="http://www.w3.org/1999/xlink" x="0px" y="0px"
	 viewBox="-1389 993 100 100" style="enable-background:new -1389 993 100 100;" xml:space="preserve">
<style type="text/css">
	.st0{fill:#3A3A3A;}
</style>
<g>
	<path class="st0" d="M-1305.6,1071.6h-1.5v-13.5v-2v-5v-7v-7c0-1.1-0.5-2.1-1.4-2.8l-0.8-0.6c-0.2-0.1-0.4-0.1-0.6,0l-0.8,0.6
		c-0.1,0.1-0.3,0.2-0.4,0.4v-2.4c0-1.1-0.6-2.1-1.5-2.7l-1.5-0.8v-1.7c0-0.3-0.2-0.5-0.5-0.5s-0.5,0.2-0.5,0.5v1.7l-1.5,0.8
		c-0.2,0.1-0.4,0.3-0.5,0.4v-3c0-1.1-0.5-2.1-1.4-2.8l-0.8-0.6c-0.2-0.1-0.4-0.1-0.6,0l-0.8,0.6c-0.1,0.1-0.3,0.2-0.4,0.4v-0.6
		c0-1.1-0.5-2.1-1.4-2.8l-0.8-0.6c-0.2-0.1-0.4-0.1-0.6,0l-0.8,0.6c-0.2,0.1-0.3,0.3-0.5,0.5c-0.2-0.9-0.7-1.7-1.5-2.1l-1.5-0.8
		v-1.7c0-0.3-0.2-0.5-0.5-0.5s-0.5,0.2-0.5,0.5v1.7l-1.5,0.8c-0.2,0.1-0.4,0.3-0.6,0.4c0-1.1-0.5-2.1-1.4-2.8l-0.8-0.6
		c-0.2-0.1-0.4-0.1-0.6,0l-0.8,0.6c-0.3,0.2-0.5,0.5-0.7,0.7c-0.3-0.6-0.7-1.1-1.2-1.4l-1.5-0.8v-1.7c0-0.3-0.2-0.5-0.5-0.5
		s-0.5,0.2-0.5,0.5v1.7l-1.5,0.8c-0.6,0.3-1,0.8-1.2,1.4c-0.2-0.3-0.4-0.5-0.7-0.7l-0.8-0.6c-0.2-0.1-0.4-0.1-0.6,0l-0.8,0.6
		c-0.9,0.6-1.4,1.7-1.4,2.8c-0.2-0.2-0.3-0.3-0.6-0.4l-1.5-0.8v-1.7c0-0.3-0.2-0.5-0.5-0.5s-0.5,0.2-0.5,0.5v1.7l-1.5,0.8
		c-0.8,0.5-1.3,1.2-1.5,2.1c-0.1-0.2-0.3-0.3-0.5-0.5l-0.8-0.6c-0.2-0.1-0.4-0.1-0.6,0l-0.8,0.6c-0.9,0.7-1.4,1.7-1.4,2.8v0.6
		c-0.1-0.1-0.3-0.3-0.4-0.4l-0.8-0.6c-0.2-0.1-0.4-0.1-0.6,0l-0.8,0.6c-0.9,0.7-1.4,1.7-1.4,2.8v3c-0.2-0.2-0.3-0.3-0.5-0.4
		l-1.5-0.8v-1.7c0-0.3-0.2-0.5-0.5-0.5s-0.5,0.2-0.5,0.5v1.7l-1.5,0.8c-1,0.5-1.5,1.6-1.5,2.7v2.4c-0.1-0.1-0.3-0.3-0.4-0.4
		l-0.8-0.6c-0.2-0.1-0.4-0.1-0.6,0l-0.8,0.6c-0.9,0.7-1.4,1.7-1.4,2.8v7v7v5v2v13.5h-1.5c-0.3,0-0.5,0.2-0.5,0.5s0.2,0.5,0.5,0.5
		h1.9h0.1h4h6h4h4h6h4h6h4h6h4h4h6h4h0.1h1.9c0.3,0,0.5-0.2,0.5-0.5S-1305.3,1071.6-1305.6,1071.6z M-1369.1,1044.1
		c0-0.8,0.4-1.5,1-2l0.5-0.4l0.5,0.4c0.6,0.5,1,1.2,1,2v4.6l0,0c-0.1-0.1-0.3-0.3-0.4-0.4l-0.8-0.6c-0.2-0.1-0.4-0.1-0.6,0l-0.8,0.6
		c-0.1,0.1-0.3,0.2-0.4,0.4C-1369.1,1048.6-1369.1,1044.1-1369.1,1044.1z M-1365.1,1036.3c0-0.7,0.4-1.4,1-1.8l1.5-0.8l1.5,0.8
		c0.6,0.4,1,1.1,1,1.8v1.4v3.4c-0.2-0.2-0.3-0.3-0.5-0.4l-1.7-1c-0.2-0.1-0.3-0.1-0.5,0l-1.7,1c-0.2,0.1-0.4,0.3-0.5,0.4v-3.4v-0.6
		L-1365.1,1036.3L-1365.1,1036.3z M-1365.1,1043.3c0-0.7,0.4-1.4,1-1.8l1.5-0.8l1.5,0.8c0.6,0.4,1,1.1,1,1.8v4.8
		c-0.2-0.2-0.3-0.3-0.5-0.4l-1.7-1c-0.2-0.1-0.3-0.1-0.5,0l-1.7,1c-0.2,0.1-0.4,0.3-0.5,0.4v-4L-1365.1,1043.3L-1365.1,1043.3z
		 M-1317.1,1050.3c0-0.7,0.4-1.4,1-1.8l1.5-0.8l1.5,0.8c0.6,0.4,1,1.1,1,1.8v0.8v4.5h-5V1050.3z M-1312.1,1044.1v4
		c-0.2-0.2-0.3-0.3-0.5-0.4l-1.7-1c-0.2-0.1-0.3-0.1-0.5,0l-1.7,1c-0.2,0.1-0.4,0.3-0.5,0.4v-4.8c0-0.7,0.4-1.4,1-1.8l1.5-0.8
		l1.5,0.8c0.6,0.4,1,1.1,1,1.8L-1312.1,1044.1L-1312.1,1044.1z M-1318.1,1043.3v3.4c-0.1-0.1-0.3-0.3-0.4-0.4l-0.8-0.6
		c-0.2-0.1-0.4-0.1-0.6,0l-0.8,0.6c-0.1,0.1-0.3,0.2-0.4,0.4v-4.6c0-0.8,0.4-1.5,1-2l0.5-0.4l0.5,0.4c0.6,0.5,1,1.2,1,2
		C-1318.1,1042.1-1318.1,1043.3-1318.1,1043.3z M-1322.1,1042.1v4.6c-0.1-0.1-0.3-0.3-0.4-0.4l-0.8-0.6c-0.2-0.1-0.4-0.1-0.6,0
		l-0.8,0.6c-0.1,0.1-0.3,0.2-0.4,0.4v-1v-4.6c0-0.8,0.4-1.5,1-2l0.5-0.4l0.5,0.4c0.6,0.5,1,1.2,1,2L-1322.1,1042.1L-1322.1,1042.1z
		 M-1331.1,1055.6v-0.9v-5.4c0-0.7,0.4-1.4,1-1.8l1.5-0.8l1.5,0.8c0.6,0.4,1,1.1,1,1.8v5.4v0.9H-1331.1z M-1326.1,1041.1v4.6v1.4
		c-0.2-0.2-0.3-0.3-0.5-0.4l-1.7-1c-0.2-0.1-0.3-0.1-0.5,0l-1.7,1c-0.2,0.1-0.4,0.3-0.5,0.4v-1.4v-5.4c0-0.7,0.4-1.4,1-1.8l1.5-0.8
		l1.5,0.8c0.6,0.4,1,1.1,1,1.8L-1326.1,1041.1L-1326.1,1041.1z M-1332.1,1040.3v5.4v1c-0.1-0.1-0.3-0.3-0.4-0.4l-0.8-0.6
		c-0.2-0.1-0.4-0.1-0.6,0l-0.8,0.6c-0.1,0.1-0.3,0.2-0.4,0.4v-2v-5.4v-0.2c0-0.8,0.4-1.5,1-2l0.5-0.4l0.5,0.4c0.6,0.5,1,1.2,1,2
		L-1332.1,1040.3L-1332.1,1040.3z M-1341.1,1055.6v-0.9v-4.6v-0.8c0-0.7,0.4-1.4,1-1.8l1.5-0.8l1.5,0.8c0.6,0.4,1,1.1,1,1.8v5.4v0.9
		H-1341.1z M-1336.1,1044.6v2.4c-0.2-0.2-0.3-0.3-0.5-0.4l-1.7-1c-0.2-0.1-0.3-0.1-0.5,0l-1.7,1c-0.2,0.1-0.4,0.3-0.5,0.4v-2.4v-4.6
		v-0.8c0-0.7,0.4-1.4,1-1.8l1.5-0.8l1.5,0.8c0.6,0.4,1,1.1,1,1.8L-1336.1,1044.6L-1336.1,1044.6z M-1342.1,1039.3v0.8v4.6v2
		c-0.1-0.1-0.3-0.3-0.4-0.4l-0.8-0.6c-0.2-0.1-0.4-0.1-0.6,0l-0.8,0.6c-0.1,0.1-0.3,0.2-0.4,0.4v-1v-5.4v-0.2v-1c0-0.8,0.4-1.5,1-2
		l0.5-0.4l0.5,0.4c0.6,0.5,1,1.2,1,2L-1342.1,1039.3L-1342.1,1039.3z M-1351.1,1055.6v-0.9v-5.4c0-0.7,0.4-1.4,1-1.8l1.5-0.8
		l1.5,0.8c0.6,0.4,1,1.1,1,1.8v0.8v4.6v0.9H-1351.1z M-1346.1,1045.6v1.4c-0.2-0.2-0.3-0.3-0.5-0.4l-1.7-1c-0.2-0.1-0.3-0.1-0.5,0
		l-1.7,1c-0.2,0.1-0.4,0.3-0.5,0.4v-1.4v-4.6v-0.8c0-0.7,0.4-1.4,1-1.8l1.5-0.8l1.5,0.8c0.6,0.4,1,1.1,1,1.8L-1346.1,1045.6
		L-1346.1,1045.6z M-1352.1,1045.6v1c-0.1-0.1-0.3-0.3-0.4-0.4l-0.8-0.6c-0.2-0.1-0.4-0.1-0.6,0l-0.8,0.6c-0.1,0.1-0.3,0.2-0.4,0.4
		v-4.6v-1c0-0.8,0.4-1.5,1-2l0.5-0.4l0.5,0.4c0.6,0.5,1,1.2,1,2L-1352.1,1045.6L-1352.1,1045.6z M-1356.1,1046.6
		c-0.1-0.1-0.3-0.3-0.4-0.4l-0.8-0.6c-0.2-0.1-0.4-0.1-0.6,0l-0.8,0.6c-0.1,0.1-0.3,0.2-0.4,0.4v-3.4v-1.2c0-0.8,0.4-1.5,1-2
		l0.5-0.4l0.5,0.4c0.6,0.5,1,1.2,1,2C-1356.1,1042.1-1356.1,1046.6-1356.1,1046.6z M-1365.1,1051.1v-0.8c0-0.7,0.4-1.4,1-1.8
		l1.5-0.8l1.5,0.8c0.6,0.4,1,1.1,1,1.8v5.3h-5V1051.1z M-1365.1,1058.1v-1.5h5v3.1c-0.3-0.1-0.5-0.1-0.8-0.1c-0.3-0.6-1-1-1.7-1
		s-1.4,0.4-1.7,1c-0.3-0.1-0.5,0-0.8,0.1V1058.1z M-1359.1,1050.3v-1.2c0-0.8,0.4-1.5,1-2l0.5-0.4l0.5,0.4c0.6,0.5,1,1.2,1,2v6.5h-3
		V1050.3z M-1355.1,1049.1c0-0.8,0.4-1.5,1-2l0.5-0.4l0.5,0.4c0.6,0.5,1,1.2,1,2v0.2v5.4v0.9h-3V1049.1z M-1351.1,1056.6h5v3.1
		c-0.3-0.1-0.5-0.1-0.8-0.1c-0.3-0.6-1-1-1.7-1s-1.4,0.4-1.7,1c-0.3-0.1-0.5,0-0.8,0.1V1056.6z M-1345.1,1054.6v-4.6v-0.8v-0.2
		c0-0.8,0.4-1.5,1-2l0.5-0.4l0.5,0.4c0.6,0.5,1,1.2,1,2v0.2v0.8v4.6v0.9h-3V1054.6z M-1341.1,1056.6h5v3.1c-0.3-0.1-0.5-0.1-0.8-0.1
		c-0.3-0.6-1-1-1.7-1s-1.4,0.4-1.7,1c-0.3-0.1-0.5,0-0.8,0.1V1056.6z M-1335.1,1054.6v-5.4v-0.2c0-0.8,0.4-1.5,1-2l0.5-0.4l0.5,0.4
		c0.6,0.5,1,1.2,1,2v0.2v5.4v0.9h-3V1054.6z M-1331.1,1056.6h5v3.1c-0.3-0.1-0.5-0.1-0.8-0.1c-0.3-0.6-1-1-1.7-1s-1.4,0.4-1.7,1
		c-0.3-0.1-0.5,0-0.8,0.1V1056.6z M-1325.1,1054.6v-5.4v-0.2c0-0.8,0.4-1.5,1-2l0.5-0.4l0.5,0.4c0.6,0.5,1,1.2,1,2v6.5h-3V1054.6z
		 M-1321.1,1049.1c0-0.8,0.4-1.5,1-2l0.5-0.4l0.5,0.4c0.6,0.5,1,1.2,1,2v1.2v5.3h-3V1049.1z M-1317.1,1056.6h5v1.5v1.6
		c-0.3-0.1-0.5-0.1-0.8-0.1c-0.3-0.6-1-1-1.7-1s-1.4,0.4-1.7,1c-0.3-0.1-0.5,0-0.8,0.1V1056.6z M-1311.1,1051.1c0-0.8,0.4-1.5,1-2
		l0.5-0.4l0.5,0.4c0.6,0.5,1,1.2,1,2v4.5h-3V1051.1z M-1308.1,1048.6c-0.1-0.1-0.3-0.3-0.4-0.4l-0.8-0.6c-0.2-0.1-0.4-0.1-0.6,0
		l-0.8,0.6c-0.1,0.1-0.3,0.2-0.4,0.4l0,0v-4.6c0-0.8,0.4-1.5,1-2l0.5-0.4l0.5,0.4c0.6,0.5,1,1.2,1,2
		C-1308.1,1044.1-1308.1,1048.6-1308.1,1048.6z M-1312.1,1037.1v0.6v3.4c-0.2-0.2-0.3-0.3-0.5-0.4l-1.7-1c-0.2-0.1-0.3-0.1-0.5,0
		l-1.7,1c-0.2,0.1-0.4,0.3-0.5,0.4v-3.4v-1.4c0-0.7,0.4-1.4,1-1.8l1.5-0.8l1.5,0.8c0.6,0.4,1,1.1,1,1.8L-1312.1,1037.1
		L-1312.1,1037.1z M-1318.1,1036.3v1.4v2c-0.1-0.1-0.3-0.3-0.4-0.4l-0.8-0.6c-0.2-0.1-0.4-0.1-0.6,0l-0.8,0.6
		c-0.1,0.1-0.3,0.2-0.4,0.4v-5.6c0-0.8,0.4-1.5,1-2l0.5-0.4l0.5,0.4c0.6,0.5,1,1.2,1,2C-1318.1,1034.1-1318.1,1036.3-1318.1,1036.3z
		 M-1322.1,1034.1v4.6c-0.1-0.1-0.3-0.3-0.4-0.4l-0.8-0.6c-0.2-0.1-0.4-0.1-0.6,0l-0.8,0.6c-0.1,0.1-0.3,0.2-0.4,0.4v-2v-3.6
		c0-0.8,0.4-1.5,1-2l0.5-0.4l0.5,0.4c0.6,0.5,1,1.2,1,2L-1322.1,1034.1L-1322.1,1034.1z M-1326.1,1033.1v3.6v1.4
		c-0.2-0.2-0.3-0.3-0.5-0.4l-1.7-1c-0.2-0.1-0.3-0.1-0.5,0l-1.7,1c-0.2,0.1-0.4,0.3-0.5,0.4v-1.4v-5.4c0-0.7,0.4-1.4,1-1.8l1.5-0.8
		l1.5,0.8c0.6,0.4,1,1.1,1,1.8L-1326.1,1033.1L-1326.1,1033.1z M-1332.1,1031.1v0.2v5.4l0,0c-0.1-0.1-0.3-0.3-0.4-0.4l-0.8-0.6
		c-0.2-0.1-0.4-0.1-0.6,0l-0.8,0.6c-0.1,0.1-0.3,0.2-0.4,0.4v-2v-3.6v-1c0-0.8,0.4-1.5,1-2l0.5-0.4l0.5,0.4c0.6,0.5,1,1.2,1,2
		L-1332.1,1031.1L-1332.1,1031.1z M-1336.1,1030.1v1v3.6v2.4c-0.2-0.2-0.3-0.3-0.5-0.4l-1.7-1c-0.2-0.1-0.3-0.1-0.5,0l-1.7,1
		c-0.2,0.1-0.4,0.3-0.5,0.4v-2.4v-4.6v-0.8c0-0.7,0.4-1.4,1-1.8l1.5-0.8l1.5,0.8c0.6,0.4,1,1.1,1,1.8L-1336.1,1030.1L-1336.1,1030.1
		z M-1342.1,1034.6v2c-0.1-0.1-0.3-0.3-0.4-0.4l-0.8-0.6c-0.2-0.1-0.4-0.1-0.6,0l-0.8,0.6c-0.1,0.1-0.3,0.2-0.4,0.4l0,0v-5.4v-0.6
		v-0.6c0-0.8,0.4-1.5,1-2l0.5-0.4l0.5,0.4c0.6,0.5,1,1.2,1,2L-1342.1,1034.6L-1342.1,1034.6z M-1346.1,1036.6v1.4
		c-0.2-0.2-0.3-0.3-0.5-0.4l-1.7-1c-0.2-0.1-0.3-0.1-0.5,0l-1.7,1c-0.2,0.1-0.4,0.3-0.5,0.4v-1.4v-3.6v-1.8c0-0.7,0.4-1.4,1-1.8
		l1.5-0.8l1.5,0.8c0.6,0.4,1,1.1,1,1.8L-1346.1,1036.6L-1346.1,1036.6z M-1352.1,1036.6v2c-0.1-0.1-0.3-0.3-0.4-0.4l-0.8-0.6
		c-0.2-0.1-0.4-0.1-0.6,0l-0.8,0.6c-0.1,0.1-0.3,0.2-0.4,0.4v-4.6v-1c0-0.8,0.4-1.5,1-2l0.5-0.4l0.5,0.4c0.6,0.5,1,1.2,1,2
		L-1352.1,1036.6L-1352.1,1036.6z M-1356.1,1039.6c-0.1-0.1-0.3-0.3-0.4-0.4l-0.8-0.6c-0.2-0.1-0.4-0.1-0.6,0l-0.8,0.6
		c-0.1,0.1-0.3,0.2-0.4,0.4v-2v-1.4v-2.2c0-0.8,0.4-1.5,1-2l0.5-0.4l0.5,0.4c0.6,0.5,1,1.2,1,2
		C-1356.1,1034.1-1356.1,1039.6-1356.1,1039.6z M-1369.1,1051.1c0-0.8,0.4-1.5,1-2l0.5-0.4l0.5,0.4c0.6,0.5,1,1.2,1,2v4.5h-3V1051.1
		z M-1365.1,1071.6v-10.5c0-0.3,0.2-0.5,0.5-0.5c0.1,0,0.2,0,0.3,0.1c0.1,0.1,0.3,0.1,0.5,0c0.2-0.1,0.3-0.2,0.3-0.4
		c0.1-0.5,0.5-0.8,1-0.8s0.9,0.3,1,0.8c0,0.2,0.1,0.3,0.3,0.4c0.2,0.1,0.3,0,0.5,0c0.1-0.1,0.2-0.1,0.3-0.1c0.3,0,0.5,0.2,0.5,0.5
		v10.5H-1365.1z M-1359.1,1071.6v-15h3v15H-1359.1z M-1355.1,1071.6v-15h3v15H-1355.1z M-1351.1,1071.6v-10.5c0-0.3,0.2-0.5,0.5-0.5
		c0.1,0,0.2,0,0.3,0.1c0.1,0.1,0.3,0.1,0.5,0c0.2-0.1,0.3-0.2,0.3-0.4c0.1-0.5,0.5-0.8,1-0.8s0.9,0.3,1,0.8c0,0.2,0.1,0.3,0.3,0.4
		c0.1,0.1,0.3,0,0.5,0c0.1-0.1,0.2-0.1,0.3-0.1c0.3,0,0.5,0.2,0.5,0.5v10.5H-1351.1z M-1345.1,1071.6v-15h3v15H-1345.1z
		 M-1341.1,1071.6v-10.5c0-0.3,0.2-0.5,0.5-0.5c0.1,0,0.2,0,0.3,0.1c0.1,0.1,0.3,0.1,0.5,0c0.2-0.1,0.3-0.2,0.3-0.4
		c0.1-0.5,0.5-0.8,1-0.8s0.9,0.3,1,0.8c0,0.2,0.1,0.3,0.3,0.4c0.1,0.1,0.3,0,0.5,0c0.1-0.1,0.2-0.1,0.3-0.1c0.3,0,0.5,0.2,0.5,0.5
		v10.5H-1341.1z M-1335.1,1071.6v-15h3v15H-1335.1z M-1331.1,1071.6v-10.5c0-0.3,0.2-0.5,0.5-0.5c0.1,0,0.2,0,0.3,0.1
		c0.1,0.1,0.3,0.1,0.5,0c0.2-0.1,0.3-0.2,0.3-0.4c0.1-0.5,0.5-0.8,1-0.8s0.9,0.3,1,0.8c0,0.2,0.1,0.3,0.3,0.4c0.1,0.1,0.3,0,0.5,0
		c0.1-0.1,0.2-0.1,0.3-0.1c0.3,0,0.5,0.2,0.5,0.5v10.5H-1331.1z M-1325.1,1071.6v-15h3v15H-1325.1z M-1321.1,1071.6v-15h3v15
		H-1321.1z M-1317.1,1071.6v-10.5c0-0.3,0.2-0.5,0.5-0.5c0.1,0,0.2,0,0.3,0.1c0.1,0.1,0.3,0.1,0.5,0c0.2-0.1,0.3-0.2,0.3-0.4
		c0.1-0.5,0.5-0.8,1-0.8s0.9,0.3,1,0.8c0,0.2,0.1,0.3,0.3,0.4c0.1,0.1,0.3,0,0.5,0c0.1-0.1,0.2-0.1,0.3-0.1c0.3,0,0.5,0.2,0.5,0.5
		v10.5H-1317.1z M-1311.1,1071.6v-13.5v-1.5h3v1.5v13.5H-1311.1z M-1310.1,1035.1l0.5-0.4l0.5,0.4c0.6,0.5,1,1.2,1,2v4.6
		c-0.1-0.1-0.3-0.3-0.4-0.4l-0.8-0.6c-0.2-0.1-0.4-0.1-0.6,0l-0.8,0.6c-0.1,0.1-0.3,0.2-0.4,0.4l0,0v-4v-0.6
		C-1311.1,1036.3-1310.7,1035.6-1310.1,1035.1z M-1316.1,1030.4l1.5-0.8l1.5,0.8c0.6,0.4,1,1.1,1,1.8v1.8c-0.2-0.2-0.3-0.3-0.5-0.4
		l-1.7-1c-0.2-0.1-0.3-0.1-0.5,0l-1.7,1c-0.2,0.1-0.4,0.3-0.5,0.4v-1.8C-1317.1,1031.6-1316.7,1030.9-1316.1,1030.4z
		 M-1320.1,1025.1l0.5-0.4l0.5,0.4c0.6,0.5,1,1.2,1,2v4.6c-0.1-0.1-0.3-0.3-0.4-0.4l-0.8-0.6c-0.2-0.1-0.4-0.1-0.6,0l-0.8,0.6
		c-0.1,0.1-0.3,0.2-0.4,0.4v-0.6v-4C-1321.1,1026.3-1320.7,1025.6-1320.1,1025.1z M-1324.1,1022l0.5-0.4l0.5,0.4c0.6,0.5,1,1.2,1,2
		v3v3.6c-0.1-0.1-0.3-0.3-0.4-0.4l-0.8-0.6c-0.2-0.1-0.4-0.1-0.6,0l-0.8,0.6c-0.1,0.1-0.3,0.2-0.4,0.4v-3v-3.6
		C-1325.1,1023.2-1324.7,1022.5-1324.1,1022z M-1330.1,1020.5l1.5-0.8l1.5,0.8c0.6,0.4,1,1.1,1,1.8v1.8v3.6v1.4
		c-0.2-0.2-0.3-0.3-0.5-0.4l-1.7-1c-0.2-0.1-0.3-0.1-0.5,0l-1.7,1c-0.2,0.1-0.4,0.3-0.5,0.4v-1.4v-5.4
		C-1331.1,1021.5-1330.7,1020.9-1330.1,1020.5z M-1334.1,1018l0.5-0.4l0.5,0.4c0.6,0.5,1,1.2,1,2v2.2v5.4l0,0
		c-0.1-0.1-0.3-0.3-0.4-0.4l-0.8-0.6c-0.2-0.1-0.4-0.1-0.6,0l-0.8,0.6c-0.1,0.1-0.3,0.2-0.4,0.4v-3v-4.6
		C-1335.1,1019.3-1334.7,1018.5-1334.1,1018z M-1341.1,1019.3c0-0.7,0.4-1.4,1-1.8l1.5-0.8l1.5,0.8c0.6,0.4,1,1.1,1,1.8v0.8v4.6v2.4
		c-0.2-0.2-0.3-0.3-0.5-0.4l-1.7-1c-0.2-0.1-0.3-0.1-0.5,0l-1.7,1c-0.2,0.1-0.4,0.3-0.5,0.4v-2.4v-4.6L-1341.1,1019.3
		L-1341.1,1019.3z M-1345.1,1020c0-0.8,0.4-1.5,1-2l0.5-0.4l0.5,0.4c0.6,0.5,1,1.2,1,2v4.6v3c-0.1-0.1-0.3-0.3-0.4-0.4l-0.8-0.6
		c-0.2-0.1-0.4-0.1-0.6,0l-0.8,0.6c-0.1,0.1-0.3,0.2-0.4,0.4v-0.6v-4.8L-1345.1,1020L-1345.1,1020z M-1351.1,1022.2
		c0-0.7,0.4-1.4,1-1.8l1.5-0.8l1.5,0.8c0.6,0.4,1,1.1,1,1.8v4.8v2c-0.2-0.2-0.3-0.3-0.5-0.4l-1.7-1c-0.2-0.1-0.3-0.1-0.5,0l-1.7,1
		c-0.2,0.1-0.4,0.3-0.5,0.4v-1.4v-3.6L-1351.1,1022.2L-1351.1,1022.2z M-1355.1,1024.1c0-0.8,0.4-1.5,1-2l0.5-0.4l0.5,0.4
		c0.6,0.5,1,1.2,1,2v3.6v3c-0.1-0.1-0.3-0.3-0.4-0.4l-0.8-0.6c-0.2-0.1-0.4-0.1-0.6,0l-0.8,0.6c-0.1,0.1-0.3,0.2-0.4,0.4v-3.6
		L-1355.1,1024.1L-1355.1,1024.1z M-1358.1,1025.1l0.5-0.4l0.5,0.4c0.6,0.5,1,1.2,1,2v4v0.6c-0.1-0.1-0.3-0.3-0.4-0.4l-0.8-0.6
		c-0.2-0.1-0.4-0.1-0.6,0l-0.8,0.6c-0.1,0.1-0.3,0.2-0.4,0.4v-4.6C-1359.1,1026.3-1358.7,1025.6-1358.1,1025.1z M-1364.1,1030.4
		l1.5-0.8l1.5,0.8c0.6,0.4,1,1.1,1,1.8v1.8c-0.2-0.2-0.3-0.3-0.5-0.4l-1.7-1c-0.2-0.1-0.3-0.1-0.5,0l-1.7,1
		c-0.2,0.1-0.4,0.3-0.5,0.4v-1.8C-1365.1,1031.6-1364.7,1030.9-1364.1,1030.4z M-1368.1,1035.1l0.5-0.4l0.5,0.4c0.6,0.5,1,1.2,1,2
		v0.6v4l0,0c-0.1-0.1-0.3-0.3-0.4-0.4l-0.8-0.6c-0.2-0.1-0.4-0.1-0.6,0l-0.8,0.6c-0.1,0.1-0.3,0.2-0.4,0.4v-4.6
		C-1369.1,1036.3-1368.7,1035.6-1368.1,1035.1z M-1369.1,1058.1v-1.5h3v1.5v13.5h-3V1058.1z"/>
	<path class="st0" d="M-1363.6,1038.6h2c0.3,0,0.5-0.2,0.5-0.5v-1.9c0-0.5-0.3-0.9-0.7-1.2l-0.6-0.3c-0.2-0.1-0.3-0.1-0.5,0
		l-0.5,0.3c-0.4,0.2-0.7,0.7-0.7,1.2v1.9C-1364.1,1038.4-1363.9,1038.6-1363.6,1038.6z M-1363.1,1036.1c0-0.1,0.1-0.2,0.2-0.3
		l0.3-0.2l0.3,0.2c0.1,0.1,0.2,0.2,0.2,0.3v1.4h-1V1036.1z M-1337.8,1047.9l-0.6-0.3c-0.2-0.1-0.3-0.1-0.5,0l-0.5,0.3
		c-0.4,0.2-0.7,0.7-0.7,1.2v1.9c0,0.3,0.2,0.5,0.5,0.5h2c0.3,0,0.5-0.2,0.5-0.5v-1.9C-1337.1,1048.6-1337.4,1048.1-1337.8,1047.9z
		 M-1338.1,1050.6h-1v-1.4c0-0.1,0.1-0.2,0.2-0.3l0.3-0.2l0.3,0.2c0.1,0.1,0.2,0.2,0.2,0.3V1050.6z M-1337.8,1027.9l-0.6-0.3
		c-0.2-0.1-0.3-0.1-0.5,0l-0.5,0.3c-0.4,0.2-0.7,0.7-0.7,1.2v1.9c0,0.3,0.2,0.5,0.5,0.5h2c0.3,0,0.5-0.2,0.5-0.5v-1.9
		C-1337.1,1028.6-1337.4,1028.1-1337.8,1027.9z M-1338.1,1030.6h-1v-1.4c0-0.1,0.1-0.2,0.2-0.3l0.3-0.2l0.3,0.2
		c0.1,0.1,0.2,0.2,0.2,0.3V1030.6z M-1339.6,1021.5h2c0.3,0,0.5-0.2,0.5-0.5v-1.9c0-0.5-0.3-0.9-0.7-1.2l-0.6-0.3
		c-0.2-0.1-0.3-0.1-0.5,0l-0.5,0.3c-0.4,0.2-0.7,0.7-0.7,1.2v1.9C-1340.1,1021.4-1339.9,1021.5-1339.6,1021.5z M-1339.1,1019.1
		c0-0.1,0.1-0.2,0.2-0.3l0.3-0.2l0.3,0.2c0.1,0.1,0.2,0.2,0.2,0.3v1.4h-1V1019.1z M-1329.6,1024.6h2c0.3,0,0.5-0.2,0.5-0.5v-1.9
		c0-0.5-0.3-0.9-0.7-1.2l-0.6-0.3c-0.2-0.1-0.3-0.1-0.5,0l-0.5,0.3c-0.4,0.2-0.7,0.7-0.7,1.2v1.9
		C-1330.1,1024.4-1329.9,1024.6-1329.6,1024.6z M-1329.1,1022.1c0-0.1,0.1-0.2,0.2-0.3l0.3-0.2l0.3,0.2c0.1,0.1,0.2,0.2,0.2,0.3v1.4
		h-1V1022.1z M-1327.8,1029.9l-0.6-0.3c-0.2-0.1-0.3-0.1-0.5,0l-0.5,0.3c-0.4,0.2-0.7,0.7-0.7,1.2v1.9c0,0.3,0.2,0.5,0.5,0.5h2
		c0.3,0,0.5-0.2,0.5-0.5v-1.9C-1327.1,1030.6-1327.4,1030.1-1327.8,1029.9z M-1328.1,1032.6h-1v-1.4c0-0.1,0.1-0.2,0.2-0.3l0.3-0.2
		l0.3,0.2c0.1,0.1,0.2,0.2,0.2,0.3V1032.6z M-1327.8,1047.9l-0.6-0.3c-0.2-0.1-0.3-0.1-0.5,0l-0.5,0.3c-0.4,0.2-0.7,0.7-0.7,1.2v1.9
		c0,0.3,0.2,0.5,0.5,0.5h2c0.3,0,0.5-0.2,0.5-0.5v-1.9C-1327.1,1048.6-1327.4,1048.1-1327.8,1047.9z M-1328.1,1050.6h-1v-1.4
		c0-0.1,0.1-0.2,0.2-0.3l0.3-0.2l0.3,0.2c0.1,0.1,0.2,0.2,0.2,0.3V1050.6z M-1349.6,1024.6h2c0.3,0,0.5-0.2,0.5-0.5v-1.9
		c0-0.5-0.3-0.9-0.7-1.2l-0.6-0.3c-0.2-0.1-0.3-0.1-0.5,0l-0.5,0.3c-0.4,0.2-0.7,0.7-0.7,1.2v1.9
		C-1350.1,1024.4-1349.9,1024.6-1349.6,1024.6z M-1349.1,1022.1c0-0.1,0.1-0.2,0.2-0.3l0.3-0.2l0.3,0.2c0.1,0.1,0.2,0.2,0.2,0.3v1.4
		h-1V1022.1z M-1347.8,1029.9l-0.6-0.3c-0.2-0.1-0.3-0.1-0.5,0l-0.5,0.3c-0.4,0.2-0.7,0.7-0.7,1.2v1.9c0,0.3,0.2,0.5,0.5,0.5h2
		c0.3,0,0.5-0.2,0.5-0.5v-1.9C-1347.1,1030.6-1347.4,1030.1-1347.8,1029.9z M-1348.1,1032.6h-1v-1.4c0-0.1,0.1-0.2,0.2-0.3l0.3-0.2
		l0.3,0.2c0.1,0.1,0.2,0.2,0.2,0.3V1032.6z M-1347.8,1047.9l-0.6-0.3c-0.2-0.1-0.3-0.1-0.5,0l-0.5,0.3c-0.4,0.2-0.7,0.7-0.7,1.2v1.9
		c0,0.3,0.2,0.5,0.5,0.5h2c0.3,0,0.5-0.2,0.5-0.5v-1.9C-1347.1,1048.6-1347.4,1048.1-1347.8,1047.9z M-1348.1,1050.6h-1v-1.4
		c0-0.1,0.1-0.2,0.2-0.3l0.3-0.2l0.3,0.2c0.1,0.1,0.2,0.2,0.2,0.3V1050.6z M-1313.8,1048.9l-0.6-0.3c-0.2-0.1-0.3-0.1-0.5,0
		l-0.5,0.3c-0.4,0.2-0.7,0.7-0.7,1.2v1.9c0,0.3,0.2,0.5,0.5,0.5h2c0.3,0,0.5-0.2,0.5-0.5v-1.9
		C-1313.1,1049.6-1313.4,1049.1-1313.8,1048.9z M-1314.1,1051.6h-1v-1.4c0-0.1,0.1-0.2,0.2-0.3l0.3-0.2l0.3,0.2
		c0.1,0.1,0.2,0.2,0.2,0.3V1051.6z M-1313.8,1034.9l-0.6-0.3c-0.2-0.1-0.3-0.1-0.5,0l-0.5,0.3c-0.4,0.2-0.7,0.7-0.7,1.2v1.9
		c0,0.3,0.2,0.5,0.5,0.5h2c0.3,0,0.5-0.2,0.5-0.5v-1.9C-1313.1,1035.6-1313.4,1035.1-1313.8,1034.9z M-1314.1,1037.6h-1v-1.4
		c0-0.1,0.1-0.2,0.2-0.3l0.3-0.2l0.3,0.2c0.1,0.1,0.2,0.2,0.2,0.3V1037.6z M-1347.6,1062.6h-2c-0.3,0-0.5,0.2-0.5,0.5v4
		c0,0.3,0.2,0.5,0.5,0.5h2c0.3,0,0.5-0.2,0.5-0.5v-4C-1347.1,1062.8-1347.3,1062.6-1347.6,1062.6z M-1348.1,1066.6h-1v-3h1V1066.6z
		 M-1361.6,1062.6h-2c-0.3,0-0.5,0.2-0.5,0.5v4c0,0.3,0.2,0.5,0.5,0.5h2c0.3,0,0.5-0.2,0.5-0.5v-4
		C-1361.1,1062.8-1361.3,1062.6-1361.6,1062.6z M-1362.1,1066.6h-1v-3h1V1066.6z M-1337.6,1062.6h-2c-0.3,0-0.5,0.2-0.5,0.5v4
		c0,0.3,0.2,0.5,0.5,0.5h2c0.3,0,0.5-0.2,0.5-0.5v-4C-1337.1,1062.8-1337.3,1062.6-1337.6,1062.6z M-1338.1,1066.6h-1v-3h1V1066.6z
		 M-1327.6,1062.6h-2c-0.3,0-0.5,0.2-0.5,0.5v4c0,0.3,0.2,0.5,0.5,0.5h2c0.3,0,0.5-0.2,0.5-0.5v-4
		C-1327.1,1062.8-1327.3,1062.6-1327.6,1062.6z M-1328.1,1066.6h-1v-3h1V1066.6z M-1313.6,1062.6h-2c-0.3,0-0.5,0.2-0.5,0.5v4
		c0,0.3,0.2,0.5,0.5,0.5h2c0.3,0,0.5-0.2,0.5-0.5v-4C-1313.1,1062.8-1313.3,1062.6-1313.6,1062.6z M-1314.1,1066.6h-1v-3h1V1066.6z
		 M-1361.8,1048.9l-0.6-0.3c-0.2-0.1-0.3-0.1-0.5,0l-0.5,0.3c-0.4,0.2-0.7,0.7-0.7,1.2v1.9c0,0.3,0.2,0.5,0.5,0.5h2
		c0.3,0,0.5-0.2,0.5-0.5v-1.9C-1361.1,1049.6-1361.4,1049.1-1361.8,1048.9z M-1362.1,1051.6h-1v-1.4c0-0.1,0.1-0.2,0.2-0.3l0.3-0.2
		l0.3,0.2c0.1,0.1,0.2,0.2,0.2,0.3V1051.6z M-1363.6,1045.6h2c0.3,0,0.5-0.2,0.5-0.5v-1.9c0-0.5-0.3-0.9-0.7-1.2l-0.6-0.3
		c-0.2-0.1-0.3-0.1-0.5,0l-0.5,0.3c-0.4,0.2-0.7,0.7-0.7,1.2v1.9C-1364.1,1045.4-1363.9,1045.6-1363.6,1045.6z M-1363.1,1043.1
		c0-0.1,0.1-0.2,0.2-0.3l0.3-0.2l0.3,0.2c0.1,0.1,0.2,0.2,0.2,0.3v1.4h-1V1043.1z M-1337.8,1037.9l-0.6-0.3c-0.2-0.1-0.3-0.1-0.5,0
		l-0.5,0.3c-0.4,0.2-0.7,0.7-0.7,1.2v1.9c0,0.3,0.2,0.5,0.5,0.5h2c0.3,0,0.5-0.2,0.5-0.5v-1.9
		C-1337.1,1038.6-1337.4,1038.1-1337.8,1037.9z M-1338.1,1040.6h-1v-1.4c0-0.1,0.1-0.2,0.2-0.3l0.3-0.2l0.3,0.2
		c0.1,0.1,0.2,0.2,0.2,0.3V1040.6z M-1327.8,1038.9l-0.6-0.3c-0.2-0.1-0.3-0.1-0.5,0l-0.5,0.3c-0.4,0.2-0.7,0.7-0.7,1.2v1.9
		c0,0.3,0.2,0.5,0.5,0.5h2c0.3,0,0.5-0.2,0.5-0.5v-1.9C-1327.1,1039.6-1327.4,1039.1-1327.8,1038.9z M-1328.1,1041.6h-1v-1.4
		c0-0.1,0.1-0.2,0.2-0.3l0.3-0.2l0.3,0.2c0.1,0.1,0.2,0.2,0.2,0.3V1041.6z M-1347.8,1038.9l-0.6-0.3c-0.2-0.1-0.3-0.1-0.5,0
		l-0.5,0.3c-0.4,0.2-0.7,0.7-0.7,1.2v1.9c0,0.3,0.2,0.5,0.5,0.5h2c0.3,0,0.5-0.2,0.5-0.5v-1.9
		C-1347.1,1039.6-1347.4,1039.1-1347.8,1038.9z M-1348.1,1041.6h-1v-1.4c0-0.1,0.1-0.2,0.2-0.3l0.3-0.2l0.3,0.2
		c0.1,0.1,0.2,0.2,0.2,0.3V1041.6z M-1313.8,1041.9l-0.6-0.3c-0.2-0.1-0.3-0.1-0.5,0l-0.5,0.3c-0.4,0.2-0.7,0.7-0.7,1.2v1.9
		c0,0.3,0.2,0.5,0.5,0.5h2c0.3,0,0.5-0.2,0.5-0.5v-1.9C-1313.1,1042.6-1313.4,1042.1-1313.8,1041.9z M-1314.1,1044.6h-1v-1.4
		c0-0.1,0.1-0.2,0.2-0.3l0.3-0.2l0.3,0.2c0.1,0.1,0.2,0.2,0.2,0.3V1044.6z M-1333.6,1029.6c-0.3,0-0.5,0.2-0.5,0.5v4
		c0,0.3,0.2,0.5,0.5,0.5s0.5-0.2,0.5-0.5v-4C-1333.1,1029.8-1333.3,1029.6-1333.6,1029.6z M-1333.6,1038.6c-0.3,0-0.5,0.2-0.5,0.5v5
		c0,0.3,0.2,0.5,0.5,0.5s0.5-0.2,0.5-0.5v-5C-1333.1,1038.8-1333.3,1038.6-1333.6,1038.6z M-1343.6,1029.6c-0.3,0-0.5,0.2-0.5,0.5v4
		c0,0.3,0.2,0.5,0.5,0.5s0.5-0.2,0.5-0.5v-4C-1343.1,1029.8-1343.3,1029.6-1343.6,1029.6z M-1333.6,1025.6c0.3,0,0.5-0.2,0.5-0.5v-5
		c0-0.3-0.2-0.5-0.5-0.5s-0.5,0.2-0.5,0.5v5C-1334.1,1025.4-1333.9,1025.6-1333.6,1025.6z M-1343.6,1025.6c0.3,0,0.5-0.2,0.5-0.5v-5
		c0-0.3-0.2-0.5-0.5-0.5s-0.5,0.2-0.5,0.5v5C-1344.1,1025.4-1343.9,1025.6-1343.6,1025.6z M-1343.6,1038.6c-0.3,0-0.5,0.2-0.5,0.5v5
		c0,0.3,0.2,0.5,0.5,0.5s0.5-0.2,0.5-0.5v-5C-1343.1,1038.8-1343.3,1038.6-1343.6,1038.6z M-1353.6,1032.6c-0.3,0-0.5,0.2-0.5,0.5v3
		c0,0.3,0.2,0.5,0.5,0.5s0.5-0.2,0.5-0.5v-3C-1353.1,1032.8-1353.3,1032.6-1353.6,1032.6z M-1353.6,1040.6c-0.3,0-0.5,0.2-0.5,0.5v3
		c0,0.3,0.2,0.5,0.5,0.5s0.5-0.2,0.5-0.5v-3C-1353.1,1040.8-1353.3,1040.6-1353.6,1040.6z M-1357.6,1033.6c-0.3,0-0.5,0.2-0.5,0.5v3
		c0,0.3,0.2,0.5,0.5,0.5s0.5-0.2,0.5-0.5v-3C-1357.1,1033.8-1357.3,1033.6-1357.6,1033.6z M-1353.6,1028.6c0.3,0,0.5-0.2,0.5-0.5v-4
		c0-0.3-0.2-0.5-0.5-0.5s-0.5,0.2-0.5,0.5v4C-1354.1,1028.4-1353.9,1028.6-1353.6,1028.6z M-1357.6,1029.6c0.3,0,0.5-0.2,0.5-0.5v-2
		c0-0.3-0.2-0.5-0.5-0.5s-0.5,0.2-0.5,0.5v2C-1358.1,1029.4-1357.9,1029.6-1357.6,1029.6z M-1357.6,1041.6c-0.3,0-0.5,0.2-0.5,0.5v2
		c0,0.3,0.2,0.5,0.5,0.5s0.5-0.2,0.5-0.5v-2C-1357.1,1041.8-1357.3,1041.6-1357.6,1041.6z M-1367.6,1039.6c0.3,0,0.5-0.2,0.5-0.5v-2
		c0-0.3-0.2-0.5-0.5-0.5s-0.5,0.2-0.5,0.5v2C-1368.1,1039.4-1367.9,1039.6-1367.6,1039.6z M-1367.6,1046.6c0.3,0,0.5-0.2,0.5-0.5v-2
		c0-0.3-0.2-0.5-0.5-0.5s-0.5,0.2-0.5,0.5v2C-1368.1,1046.4-1367.9,1046.6-1367.6,1046.6z M-1367.6,1050.6c-0.3,0-0.5,0.2-0.5,0.5v3
		c0,0.3,0.2,0.5,0.5,0.5s0.5-0.2,0.5-0.5v-3C-1367.1,1050.8-1367.3,1050.6-1367.6,1050.6z M-1357.6,1059.6c-0.3,0-0.5,0.2-0.5,0.5v8
		c0,0.3,0.2,0.5,0.5,0.5s0.5-0.2,0.5-0.5v-8C-1357.1,1059.8-1357.3,1059.6-1357.6,1059.6z M-1353.6,1059.6c-0.3,0-0.5,0.2-0.5,0.5v8
		c0,0.3,0.2,0.5,0.5,0.5s0.5-0.2,0.5-0.5v-8C-1353.1,1059.8-1353.3,1059.6-1353.6,1059.6z M-1343.6,1059.6c-0.3,0-0.5,0.2-0.5,0.5v8
		c0,0.3,0.2,0.5,0.5,0.5s0.5-0.2,0.5-0.5v-8C-1343.1,1059.8-1343.3,1059.6-1343.6,1059.6z M-1309.6,1043.6c-0.3,0-0.5,0.2-0.5,0.5v2
		c0,0.3,0.2,0.5,0.5,0.5s0.5-0.2,0.5-0.5v-2C-1309.1,1043.8-1309.3,1043.6-1309.6,1043.6z M-1309.6,1050.6c-0.3,0-0.5,0.2-0.5,0.5v3
		c0,0.3,0.2,0.5,0.5,0.5s0.5-0.2,0.5-0.5v-3C-1309.1,1050.8-1309.3,1050.6-1309.6,1050.6z M-1367.6,1059.6c-0.3,0-0.5,0.2-0.5,0.5v8
		c0,0.3,0.2,0.5,0.5,0.5s0.5-0.2,0.5-0.5v-8C-1367.1,1059.8-1367.3,1059.6-1367.6,1059.6z M-1333.6,1059.6c-0.3,0-0.5,0.2-0.5,0.5v8
		c0,0.3,0.2,0.5,0.5,0.5s0.5-0.2,0.5-0.5v-8C-1333.1,1059.8-1333.3,1059.6-1333.6,1059.6z M-1323.6,1059.6c-0.3,0-0.5,0.2-0.5,0.5v8
		c0,0.3,0.2,0.5,0.5,0.5s0.5-0.2,0.5-0.5v-8C-1323.1,1059.8-1323.3,1059.6-1323.6,1059.6z M-1319.6,1059.6c-0.3,0-0.5,0.2-0.5,0.5v8
		c0,0.3,0.2,0.5,0.5,0.5s0.5-0.2,0.5-0.5v-8C-1319.1,1059.8-1319.3,1059.6-1319.6,1059.6z M-1309.6,1059.6c-0.3,0-0.5,0.2-0.5,0.5v8
		c0,0.3,0.2,0.5,0.5,0.5s0.5-0.2,0.5-0.5v-8C-1309.1,1059.8-1309.3,1059.6-1309.6,1059.6z M-1333.6,1048.6c-0.3,0-0.5,0.2-0.5,0.5v5
		c0,0.3,0.2,0.5,0.5,0.5s0.5-0.2,0.5-0.5v-5C-1333.1,1048.8-1333.3,1048.6-1333.6,1048.6z M-1343.6,1048.6c-0.3,0-0.5,0.2-0.5,0.5v5
		c0,0.3,0.2,0.5,0.5,0.5s0.5-0.2,0.5-0.5v-5C-1343.1,1048.8-1343.3,1048.6-1343.6,1048.6z M-1353.6,1048.6c-0.3,0-0.5,0.2-0.5,0.5v5
		c0,0.3,0.2,0.5,0.5,0.5s0.5-0.2,0.5-0.5v-5C-1353.1,1048.8-1353.3,1048.6-1353.6,1048.6z M-1357.6,1048.6c-0.3,0-0.5,0.2-0.5,0.5v5
		c0,0.3,0.2,0.5,0.5,0.5s0.5-0.2,0.5-0.5v-5C-1357.1,1048.8-1357.3,1048.6-1357.6,1048.6z M-1309.6,1039.6c0.3,0,0.5-0.2,0.5-0.5v-2
		c0-0.3-0.2-0.5-0.5-0.5s-0.5,0.2-0.5,0.5v2C-1310.1,1039.4-1309.9,1039.6-1309.6,1039.6z M-1323.6,1032.6c-0.3,0-0.5,0.2-0.5,0.5v3
		c0,0.3,0.2,0.5,0.5,0.5s0.5-0.2,0.5-0.5v-3C-1323.1,1032.8-1323.3,1032.6-1323.6,1032.6z M-1323.6,1040.6c-0.3,0-0.5,0.2-0.5,0.5v3
		c0,0.3,0.2,0.5,0.5,0.5s0.5-0.2,0.5-0.5v-3C-1323.1,1040.8-1323.3,1040.6-1323.6,1040.6z M-1323.6,1048.6c-0.3,0-0.5,0.2-0.5,0.5v5
		c0,0.3,0.2,0.5,0.5,0.5s0.5-0.2,0.5-0.5v-5C-1323.1,1048.8-1323.3,1048.6-1323.6,1048.6z M-1319.6,1033.6c-0.3,0-0.5,0.2-0.5,0.5v3
		c0,0.3,0.2,0.5,0.5,0.5s0.5-0.2,0.5-0.5v-3C-1319.1,1033.8-1319.3,1033.6-1319.6,1033.6z M-1323.6,1028.6c0.3,0,0.5-0.2,0.5-0.5v-4
		c0-0.3-0.2-0.5-0.5-0.5s-0.5,0.2-0.5,0.5v4C-1324.1,1028.4-1323.9,1028.6-1323.6,1028.6z M-1319.6,1029.6c0.3,0,0.5-0.2,0.5-0.5v-2
		c0-0.3-0.2-0.5-0.5-0.5s-0.5,0.2-0.5,0.5v2C-1320.1,1029.4-1319.9,1029.6-1319.6,1029.6z M-1319.6,1041.6c-0.3,0-0.5,0.2-0.5,0.5v2
		c0,0.3,0.2,0.5,0.5,0.5s0.5-0.2,0.5-0.5v-2C-1319.1,1041.8-1319.3,1041.6-1319.6,1041.6z M-1319.6,1048.6c-0.3,0-0.5,0.2-0.5,0.5v5
		c0,0.3,0.2,0.5,0.5,0.5s0.5-0.2,0.5-0.5v-5C-1319.1,1048.8-1319.3,1048.6-1319.6,1048.6z"/>
</g>
</svg>
